<ttFont>
          <CharString index="0">
            294 -12 rmoveto
            183 143 187 216 115 callsubr
            -169 89 -106 147 hvcurveto
            84 585 rmoveto
            88 44 -74 -116 -152 -94 -150 -116 -88 -43 74 116 152 93 150 116 hvcurveto
            return
          </CharString>
          <CharString index="1">
            -66 -335 rlineto
            -105 callgsubr
            return
          </CharString>
          <CharString index="2">
            217 -12 rmoveto
            135 136 128 187 123 -73 77 -111 -134 -136 -127 -188 -122 73 -78 110 hvcurveto
            76 428 rmoveto
            56 30 -42 -74 -126 -72 -99 -78 -57 -30 43 74 125 73 99 78 hvcurveto
            return
          </CharString>
          <CharString index="3">
            rmoveto
            49 99 34 68 29 64 32 71 rlinecurve
            4 hlineto
            3 -71 5 -65 4 -67 7 -99 rcurveline
            -67 388 rmoveto
            -350 -654 rlineto
            119 hlineto
            91 184 rlineto
            213 hlineto
            13 -184 rlineto
            112 hlineto
            -70 654 rlineto
            return
          </CharString>
          <CharString index="4">
            184 -91 rmoveto
            -45 -28 34 72 126 76 107 83 30 31 -18 -42 22 hvcurveto
            -40 -196 rlineto
            -59 -40 -47 -24 -42 hhcurveto
            return
          </CharString>
          <CharString index="5">
            -21 -57 rlineto
            -3 hlineto
            42 -21 -42 27 -48 hhcurveto
            -133 -125 -142 -178 -115 60 -58 83 58 52 29 44 145 callgsubr
            -24 -91 rlineto
            -78 -21 -45 -46 -74 hhcurveto
            -51 -44 24 30 -37 hvcurveto
            -48 -72 rlineto
            -42 52 63 -26 62 hhcurveto
            130 87 73 138 28 hvcurveto
            return
          </CharString>
          <CharString index="6">
            8 107 rmoveto
            -83 59 80 -36 87 hhcurveto
            142 96 89 117 75 -32 43 -63 37 hvcurveto
            -70 42 rlineto
            -50 30 -33 22 42 vvcurveto
            45 37 43 63 54 42 -29 -37 33 vhcurveto
            69 63 rlineto
            57 -46 -68 39 -78 hhcurveto
            -123 -94 -87 -105 -77 42 -47 57 -35 hvcurveto
            69 -42 rlineto
            48 -29 31 -24 -41 vvcurveto
            -61 -49 -38 -68 -64 -55 34 53 -38 vhcurveto
            return
          </CharString>
          <CharString index="7">
            66 335 rlineto
            53 52 38 23 34 hhcurveto
            42 20 -21 -42 -15 -4 -14 -4 -23 hvcurveto
            -60 36 callsubr
            62 310 rlineto
            6 26 2 20 23 vvcurveto
            79 -34 45 -82 return
          </CharString>
          <CharString index="8">
            -21 -57 rlineto
            -2 hlineto
            42 -22 -43 27 25 callsubr
            return
          </CharString>
          <CharString index="9">
            3 callgsubr
            hintmask 1110101001010000
            -12 callsubr
            hintmask 1111001010010000
            -31 callsubr
            hintmask 1111001100100000
            -77 callgsubr
            hintmask 1111001010010000
            -87 callgsubr
            hintmask 1110101001010000
            -22 callgsubr
            hintmask 1111001100100000
            -81 callgsubr
            hintmask 1110101001010000
            -67 callgsubr
            return
          </CharString>
          <CharString index="10">
            -96 callsubr
            endchar
          </CharString>
          <CharString index="11">
            rmoveto
            -73 callsubr
            -31 -73 callgsubr
            31 hvcurveto
            return
          </CharString>
          <CharString index="12">
            rmoveto
            5 -13 2 -10 -12 vvcurveto
            -37 -37 -31 -52 -4 vhcurveto
            -57 -100 callgsubr
            -70 -350 rlineto
            -6 -33 -6 -37 -29 vvcurveto
            -145 76 -72 144 129 88 81 195 39 vhcurveto
            70 345 rlineto
            94 17 41 50 58 117 callsubr
            -9 19 vhcurveto
            endchar
          </CharString>
          <CharString index="13">
            rmoveto
            29 21 28 38 19 vhcurveto
            37 -19 31 -14 -38 vvcurveto
            -37 -31 -25 -39 -32 -25 24 33 vhcurveto
            hintmask 11010100
            107 126 rmoveto
            -33 14 -24 20 31 vvcurveto
            32 25 20 32 27 21 -17 -31 -24 -17 -23 -31 -22 vhcurveto
            hintmask 11101000
            -183 -135 rmoveto
            -60 51 -44 76 83 67 50 69 40 -21 26 -28 20 vhcurveto
            4 vlineto
            hintmask 11010100
            39 21 35 37 49 vvcurveto
            59 -46 39 -67 -72 -62 -45 -67 -31 17 -25 22 -20 vhcurveto
            -2 -4 rlineto
            hintmask 11101000
            -46 -22 -46 -41 -55 vvcurveto
            endchar
          </CharString>
          <CharString index="14">
            -50 -12 81 246 76 170 87 hstem
            51 100 203 99 vstem
            244 69 rmoveto
            -56 -37 51 81 15 0 15 1 14 hvcurveto
            54 44 45 16 29 hhcurveto
            55 29 -39 -63 -68 -44 -76 -66 hvcurveto
            263 495 rmoveto
            41 -27 -46 43 -75 hhcurveto
            -178 -130 -179 -260 -130 72 -91 115 124 91 113 124 109 -64 57 -92 -39 -56 -22 -44 -41 hvcurveto
            150 27 77 86 87 hhcurveto
            39 26 -21 -33 21 hvcurveto
            endchar
          </CharString>
          <CharString index="15">
            -23 -113 rlineto
            -34 -38 -34 -19 -35 hhcurveto
            -39 -27 19 40 hvcurveto
            return
          </CharString>
          <CharString index="16">
            rmoveto
            33 25 28 34 25 -17 17 -27 -31 -26 -27 -34 -24 17 -19 26 hvcurveto
            177 hmoveto
            32 25 28 34 25 -17 17 -25 -32 -26 -27 -34 -24 18 -19 25 hvcurveto
            endchar
          </CharString>
          <CharString index="17">
            143 callsubr
            67 hhcurveto
            82 73 62 88 70 -46 44 -63 -12 -18 -3 -8 -16 hvcurveto
            24 81 rlineto
            152 hlineto
            13 68 rlineto
            -216 hlineto
            -53 -190 29 -29 rlineto
            16 23 19 8 24 hhcurveto
            36 25 -23 -40 -47 -38 -32 -39 -41 -26 21 32 -18 hvcurveto
            return
          </CharString>
          <CharString index="18">
            79 hlineto
            67 59 -26 callgsubr
            44 -59 rlineto
            78 hlineto
            -69 108 rlineto
            return
          </CharString>
          <CharString index="19">
            -76 56 -45 67 53 57 30 36 39 vhcurveto
            3 hlineto
            return
          </CharString>
          <CharString index="20">
            rmoveto
            116 71 127 133 92 -53 63 -78 -116 -71 -127 -132 -92 53 -64 78 hvcurveto
            50 349 rmoveto
            41 17 -38 -55 -96 -39 -94 -63 -41 -17 38 55 97 39 93 63 hvcurveto
            return
          </CharString>
          <CharString index="21">
            rmoveto
            -34 -28 24 66 hvcurveto
            2 0 3 2 vvcurveto
            25 22 28 13 23 hhcurveto
            33 20 -21 -34 -48 -32 -32 -32 hvcurveto
            173 306 rmoveto
            28 -27 -35 15 -43 hhcurveto
            -106 -100 -90 -170 -91 55 -63 76 75 69 60 90 62 -40 44 -66 -34 -33 -17 -21 -21 hvcurveto
            86 15 46 45 57 hhcurveto
            29 19 -9 -19 19 hvcurveto
            endchar
          </CharString>
          <CharString index="22">
            -5 -68 rlineto
            88 hlineto
            -30 callsubr
            -86 hlineto
            return
          </CharString>
          <CharString index="23">
            35 27 33 32 31 -22 18 -27 -35 -27 -32 -33 -31 21 -18 28 hvcurveto
            return
          </CharString>
          <CharString index="24">
            rmoveto
            34 24 30 30 26 -19 18 -25 -33 -25 -30 -29 -28 19 -17 25 hvcurveto
            176 hmoveto
            33 24 30 30 26 -19 18 -25 -34 -23 -30 -29 -28 18 -17 26 hvcurveto
            return
          </CharString>
          <CharString index="25">
            267 hlineto
            13 68 rlineto
            -140 hlineto
            108 84 61 64 77 vvcurveto
            67 -47 42 -76 -52 -38 -25 -38 -40 vhcurveto
            45 -48 rlineto
            23 23 24 18 24 hhcurveto
            38 18 -20 -33 -65 -68 -64 -152 -103 hvcurveto
            return
          </CharString>
          <CharString index="26">
            58 406 rmoveto
            63 hlineto
            -81 -406 rlineto
            107 hlineto
            80 406 rlineto
            94 hlineto
            17 85 rlineto
            -93 hlineto
            12 60 rlineto
            56 11 25 25 40 hhcurveto
            20 19 -8 -7 12 hvcurveto
            36 76 rlineto
            15 -28 -32 10 -37 hhcurveto
            -98 -55 -70 -100 -20 hvcurveto
            -11 -57 -65 -5 rlineto
            return
          </CharString>
          <CharString index="27">
            -41 -12 84 -51 -21 238 68 112 85 return
          </CharString>
          <CharString index="28">
            0 -12 -57 callgsubr
            return
          </CharString>
          <CharString index="29">
            110 vstem
            32 hmoveto
            190 hlineto
            215 141 150 248 166 -101 90 -182 hvcurveto
            -133 hlineto
            -5 -567 rmoveto
            95 480 rlineto
            40 hlineto
            111 65 -60 -116 -193 -101 -111 -147 hvcurveto
            return
          </CharString>
          <CharString index="30">
            100 hmoveto
            125 hlineto
            101 236 19 46 17 49 19 50 rlinecurve
            4 hlineto
            -50 1 -49 -46 vvcurveto
            9 -236 rlineto
            128 hlineto
            216 491 rlineto
            -100 hlineto
            return
          </CharString>
          <CharString index="31">
            rmoveto
            87 -67 callsubr
            return
          </CharString>
          <CharString index="32">
            rmoveto
            76 92 64 84 -26 callgsubr
            -27 -114 -12 -62 rlineto
            127 hmoveto
            -58 hlineto
            47 238 rlineto
            -95 hlineto
            -204 -250 -8 -43 rlineto
            179 hlineto
            -19 -97 rlineto
            70 hlineto
            19 97 rlineto
            57 hlineto
            endchar
          </CharString>
          <CharString index="33">
            -38 callsubr
            -2 callsubr
            hintmask 11011000
            428 491 rmoveto
            hintmask 11101000
            -102 callsubr
            hintmask 11011000
            -51 callsubr
            hintmask 11101000
            -59 callsubr
            hintmask 11011000
            49 callsubr
            endchar
          </CharString>
          <CharString index="34">
            40 32 -83 callgsubr
            return
          </CharString>
          <CharString index="35">
            -15 21 -21 184 82 302 86 return
          </CharString>
          <CharString index="36">
            rlineto
            -108 hlineto
            return
          </CharString>
          <CharString index="37">
            hintmask 01011100
            32 hmoveto
            103 hlineto
            59 300 rlineto
            hintmask 01101100
            -84 callgsubr
            hintmask 10011100
            -15 -71 -6 -85 -8 -67 rrcurveto
            -4 hlineto
            -38 141 -128 379 rlineto
            -106 hlineto
            return
          </CharString>
          <CharString index="38">
            rmoveto
            83 hlineto
            143 145 rlineto
            84 callgsubr
          </CharString>
          <CharString index="39">
            -10 hmoveto
            365 hlineto
            17 85 rlineto
            -231 hlineto
            293 344 12 62 rlineto
            -335 hlineto
            -17 -85 rlineto
            200 hlineto
            -292 -345 rlineto
            return
          </CharString>
          <CharString index="40">
            hlineto
            71 66 rlineto
            -74 callgsubr
            return
          </CharString>
          <CharString index="41">
            82 hlineto
            76 390 rlineto
            -62 hlineto
            -34 -22 -26 -11 -54 -8 -10 -51 rcurveline
            88 hlineto
            return
          </CharString>
          <CharString index="42">
            87 hlineto
            29 128 41 103 117 115 7 44 rcurveline
            -271 hlineto
            -13 -68 rlineto
            180 hlineto
            -92 -100 -53 -97 -32 -125 rrcurveto
            return
          </CharString>
          <CharString index="43">
            rmoveto
            479 684 rlineto
            -66 hlineto
            -479 -684 rlineto
            return
          </CharString>
          <CharString index="44">
            rmoveto
            -87 hlineto
            -71 -66 rlineto
            -3 hlineto
            -46 66 rlineto
            -80 hlineto
            70 -114 rlineto
            103 hlineto
            endchar
          </CharString>
          <CharString index="45">
            -50 -87 87 19 -21 167 76 266 81 hstemhm
            50 98 214 100 hintmask 01111100
            236 241 rmoveto
            -56 -32 43 69 73 50 81 71 56 37 -51 -81 -22 -1 -21 -1 -21 hvcurveto
            -54 -47 -45 -16 -32 hhcurveto
            -236 -243 rmoveto
            hintmask 10111100
            -42 27 46 -43 75 hhcurveto
            181 133 187 267 130 -72 91 -116 -130 -94 -118 -129 -116 68 -60 91 40 56 21 41 43 hvcurveto
            -144 -31 -76 -83 -87 hhcurveto
            -38 -26 21 33 -21 hvcurveto
            endchar
          </CharString>
          <CharString index="46">
            -56 -12 82 148 68 134 83 return
          </CharString>
          <CharString index="47">
            65 68 39 128 3 vhcurveto
            return
          </CharString>
          <CharString index="48">
            117 73 101 80 30 29 -18 -42 23 vhcurveto
            -37 -182 rlineto
            return
          </CharString>
          <CharString index="49">
            128 408 rmoveto
            84 30 69 72 106 vvcurveto
            52 -25 30 -38 -42 -28 -32 -37 -14 callsubr
            return
          </CharString>
          <CharString index="50">
            -50 -12 87 170 76 246 81 hstem
            68 99 204 100 vstem
            252 321 rmoveto
            -55 -30 39 63 68 45 76 66 56 37 -51 -81 -14 0 -14 -1 -14 hvcurveto
            -55 -44 -45 -17 -29 hhcurveto
            -238 -249 rmoveto
            -41 28 46 -43 74 hhcurveto
            178 131 179 260 130 -72 91 -116 -124 -91 -113 -124 -108 65 -58 92 39 57 23 44 40 hvcurveto
            -150 -28 -77 -87 -87 hhcurveto
            -39 -26 21 33 -20 hvcurveto
            endchar
          </CharString>
          <CharString index="51">
            rmoveto
            hintmask 01100000
            82 27 50 56 76 vvcurveto
            37 -20 25 -29 -32 -27 -20 -36 -27 20 -17 24 vhcurveto
            1 0 0 1 hhcurveto
            -6 -37 -29 -22 -46 -17 rrcurveto
            endchar
          </CharString>
          <CharString index="52">
            -83 callgsubr
            -32 return
          </CharString>
          <CharString index="53">
            31 callgsubr
            -21 19 -29 -35 -28 -30 -35 -32 return
          </CharString>
          <CharString index="54">
            -5 -21 -2 -16 -15 vvcurveto
            -50 26 -30 57 27 19 4 6 15 vhcurveto
            return
          </CharString>
          <CharString index="55">
            -34 callgsubr
            endchar
          </CharString>
          <CharString index="56">
            100 498 rlineto
            -298 -392 rmoveto
            -43 -28 32 66 hvcurveto
            return
          </CharString>
          <CharString index="57">
            22 -75 callgsubr
            return
          </CharString>
          <CharString index="58">
            rmoveto
            -106 -126 -45 -94 -140 vvcurveto
            -72 17 -67 26 -57 vhcurveto
            60 25 rlineto
            -19 49 -8 68 54 vvcurveto
            119 41 103 87 112 vhcurveto
            endchar
          </CharString>
          <CharString index="59">
            88 -55 -21 415 88 return
          </CharString>
          <CharString index="60">
            rmoveto
            -50 callgsubr
            return
          </CharString>
          <CharString index="61">
            48 callgsubr
            41 206 118 120 115 -326 rlineto
            112 hlineto
            -147 394 241 260 rlineto
            -119 hlineto
            -286 -296 rlineto
            -4 hlineto
            59 296 -71 callsubr
            return
          </CharString>
          <CharString index="62">
            rmoveto
            -57 -30 43 74 125 73 99 78 56 30 -42 -74 -126 -72 -99 -78 hvcurveto
            return
          </CharString>
          <CharString index="63">
            78 0 87 228 56 196 87 hstem
            486 110 vstem
            175 87 rmoveto
            45 228 rlineto
            136 hlineto
            12 56 rlineto
            -137 hlineto
            39 196 rlineto
            40 hlineto
            111 65 -60 -116 -193 -101 -111 -147 hvcurveto
            -58 567 rmoveto
            -56 -283 -71 -4 -11 -52 rlineto
            71 hlineto
            -63 -315 rlineto
            190 hlineto
            215 141 150 248 166 -101 90 -182 hvcurveto
            endchar
          </CharString>
          <CharString index="64">
            hintmask 10111100
            -15 callgsubr
            hintmask 11011100
            -92 callgsubr
            hintmask 10111100
            12 callsubr
            hintmask 11011100
            -40 callgsubr
            return
          </CharString>
          <CharString index="65">
            34 108 237 109 return
          </CharString>
          <CharString index="66">
            -184 59 callgsubr
            57 376 rmoveto
            -78 37 -42 57 37 39 20 33 31 vhcurveto
            4 hlineto
            -4 -45 rlineto
            62 hlineto
            65 326 rlineto
            -62 hlineto
            -15 -38 rlineto
            -4 hlineto
            29 -14 -26 17 -30 hhcurveto
            -91 -86 -99 -123 hvcurveto
            123 -56 -33 callsubr
          </CharString>
          <CharString index="67">
            -50 -88 88 256 81 148 91 hstem
            315 109 vstem
            -23 24 rmoveto
            -70 47 68 -42 83 hhcurveto
            128 121 97 154 114 -73 60 -96 -27 -24 -6 -10 -21 hvcurveto
            46 164 rlineto
            228 -63 callgsubr
            -321 hlineto
            -82 -317 42 -34 rlineto
            22 43 20 9 37 hhcurveto
            62 39 -38 -73 -89 -64 -56 -72 -63 -40 35 44 -30 hvcurveto
            endchar
          </CharString>
          <CharString index="68">
            -9 vhcurveto
            6 -45 rlineto
            76 12 61 30 67 vvcurveto
            39 -35 30 -96 4 vhcurveto
            endchar
          </CharString>
          <CharString index="69">
            -6 -218 86 142 89 316 88 -12 -20 return
          </CharString>
          <CharString index="70">
            -21 491 -20 return
          </CharString>
          <CharString index="71">
            rmoveto
            97 callsubr
            178 hmoveto
            -15 callsubr
            endchar
          </CharString>
          <CharString index="72">
            287 663 rmoveto
            4 -13 95 callsubr
            -30 -54 -5 vhcurveto
            return
          </CharString>
          <CharString index="73">
            vstem
            32 hmoveto
            99 hlineto
            63 314 12 61 8 83 7 61 rlinecurve
            4 hlineto
            21 -148 54 -307 rlineto
            50 hlineto
            173 307 80 148 rlineto
            3 hlineto
            -18 -60 -22 -83 -13 -62 -65 -314 rcurveline
            102 37 callsubr
            -119 hlineto
            -180 -327 -65 -126 rlineto
            -4 hlineto
            -19 126 -52 327 rlineto
            -120 hlineto
            return
          </CharString>
          <CharString index="74">
            rmoveto
            -25 -19 20 46 80 51 68 51 18 19 -10 -28 13 hvcurveto
            -22 -122 rlineto
            -37 -26 -33 -17 -27 hhcurveto
            endchar
          </CharString>
          <CharString index="75">
            -109 -263 -20 -47 -16 -46 -18 -48 rlinecurve
            -4 hlineto
            -1 48 0 46 -1 47 rrcurveto
            return
          </CharString>
          <CharString index="76">
            -38 -23 -26 -34 -36 vvcurveto
            -27 12 -24 18 -15 vhcurveto
            -3 vlineto
            return
          </CharString>
          <CharString index="77">
            98 491 rlineto
            return
          </CharString>
          <CharString index="78">
            -50 callsubr
            141 706 -20 callsubr
            return
          </CharString>
          <CharString index="79">
            rmoveto
            39 33 67 callsubr
            143 callgsubr
            -37 30 -19 32 hvcurveto
            endchar
          </CharString>
          <CharString index="80">
            -7 vhcurveto
            4 -45 rlineto
            return
          </CharString>
          <CharString index="81">
            32 14 154 callgsubr
            39 36 64 20 hvcurveto
            -50 hlineto
            -26 -9 -18 -15 -15 hhcurveto
            return
          </CharString>
          <CharString index="82">
            rmoveto
            218 150 183 204 162 -110 115 -155 -218 -150 -182 -204 -162 110 -116 155 hvcurveto
            99 614 rmoveto
            138 78 -101 -131 -171 -131 -160 -180 -138 -78 101 131 171 131 160 180 hvcurveto
            endchar
          </CharString>
          <CharString index="83">
            -339 rmoveto
            -88 54 -51 80 39 38 13 18 33 vhcurveto
            -24 51 rlineto
            -13 -22 -20 -10 -24 hhcurveto
            -53 -31 32 59 4 hvcurveto
            198 hlineto
            6 12 9 29 29 vvcurveto
            64 -26 58 -80 -87 -94 -83 -120 vhcurveto
            81 60 rmoveto
            52 16 39 31 36 hhcurveto
            37 14 -27 -31 -8 -1 -8 -2 -9 hvcurveto
            endchar
          </CharString>
          <CharString index="84">
            113 rmoveto
            29 21 28 39 19 vhcurveto
            36 -19 32 -14 -38 vvcurveto
            -37 -32 -25 -39 -31 -26 24 33 vhcurveto
            return
          </CharString>
          <CharString index="85">
            153 callgsubr
            45 30 callsubr
            return
          </CharString>
          <CharString index="86">
            69 -26 callgsubr
            37 -69 rlineto
            65 hlineto
            -54 123 rlineto
            -83 hlineto
            return
          </CharString>
          <CharString index="87">
            rlineto
            -107 hlineto
            return
          </CharString>
          <CharString index="88">
            98 callsubr
            -19 48 rlineto
            -7 -12 -11 -4 -12 hhcurveto
            -20 -16 12 21 return
          </CharString>
          <CharString index="89">
            -24 -40 25 hvcurveto
            74 57 rlineto
            60 -35 -57 40 return
          </CharString>
          <CharString index="90">
            -191 256 62 217 63 hstem
            56 77 153 77 vstem
            180 256 rmoveto
            92 91 82 127 84 -52 49 -73 -91 -91 -82 -127 -84 52 -49 72 hvcurveto
            52 279 rmoveto
            36 18 -27 -46 -79 -44 -65 -55 -36 -18 28 45 79 44 65 55 hvcurveto
            endchar
          </CharString>
          <CharString index="91">
            17 callgsubr
            -18 30 45 5 hvcurveto
            -50 hlineto
            return
          </CharString>
          <CharString index="92">
            -54 callsubr
            21 -18 29 hvcurveto
            return
          </CharString>
          <CharString index="93">
            -35 26 -19 35 vhcurveto
            2 1 0 2 hhcurveto
            -1 -36 -37 -53 -67 -29 rrcurveto
            return
          </CharString>
          <CharString index="94">
            135 136 128 187 56 -15 47 -28 34 hvcurveto
            return
          </CharString>
          <CharString index="95">
            72 302 rmoveto
            -47 21 -37 31 -27 vhcurveto
            -4 vlineto
            return
          </CharString>
          <CharString index="96">
            512 28 callgsubr
            return
          </CharString>
          <CharString index="97">
            103 -12 93 492 return
          </CharString>
          <CharString index="98">
            -183 -135 rmoveto
            -60 51 -44 77 82 67 50 69 40 -21 26 -28 20 vhcurveto
            4 vlineto
            return
          </CharString>
          <CharString index="99">
            77 15 47 47 60 vvcurveto
            18 -4 17 -8 19 vhcurveto
            endchar
          </CharString>
          <CharString index="100">
            87 341 87 return
          </CharString>
          <CharString index="101">
            rmoveto
            143 137 176 260 136 -69 88 -108 -144 -138 -177 -261 -136 70 -86 109 hvcurveto
            96 577 rmoveto
            57 28 -49 -84 -184 -83 -176 -92 -57 -28 47 83 184 83 179 92 hvcurveto
            endchar
          </CharString>
          <CharString index="102">
            rmoveto
            12 callgsubr
            104 hlineto
            endchar
          </CharString>
          <CharString index="103">
            rmoveto
            -16 callsubr
            50 callgsubr
            return
          </CharString>
          <CharString index="104">
            -7 -44 callgsubr
            return
          </CharString>
          <CharString index="105">
            hstemhm
            35 111 return
          </CharString>
          <CharString index="106">
            137 callsubr
            -40 -16 -52 64 callsubr
            81 144 callgsubr
            -20 18 -25 9 vhcurveto
            return
          </CharString>
          <CharString index="107">
            654 -71 callsubr
            return
          </CharString>
          <CharString index="108">
            -128 hlineto
            -350 -654 rlineto
            119 hlineto
            91 184 rlineto
            213 hlineto
            return
          </CharString>
          <CharString index="109">
            rmoveto
            -73 callgsubr
            31 -73 callsubr
            -31 hvcurveto
            return
          </CharString>
          <CharString index="110">
            rmoveto
            82 44 154 callsubr
            -61 hlineto
            -30 -12 -30 callgsubr
            return
          </CharString>
          <CharString index="111">
            vstem
            22 hmoveto
            29 hlineto
            -34 -23 -57 -54 -61 vvcurveto
            98 callsubr
            -20 48 rlineto
            -7 -11 -11 -4 -12 hhcurveto
            -20 -16 12 21 39 29 38 61 31 hvcurveto
            -30 callsubr
            -107 hlineto
            return
          </CharString>
          <CharString index="112">
            rmoveto
            42 callsubr
            hintmask 11010000
            0 callgsubr
            hintmask 10110000
            34 callsubr
          </CharString>
          <CharString index="113">
            36 26 33 32 31 -22 18 -26 -36 -26 -32 -33 -31 20 -18 28 hvcurveto
            return
          </CharString>
          <CharString index="114">
            rmoveto
            38 callgsubr
            hintmask 11101000
            133 callgsubr
            -58 hlineto
            -32 -12 -15 -17 -19 hhcurveto
            hintmask 11011000
            27 callgsubr
            endchar
          </CharString>
          <CharString index="115">
            229 28 callgsubr
            -106 -527 rlineto
            -56 -13 -17 -28 -36 hhcurveto
            -18 -13 4 8 -13 hvcurveto
            return
          </CharString>
          <CharString index="116">
            hstemhm
            -42 callsubr
            return
          </CharString>
          <CharString index="117">
            -271 31 callsubr
            return
          </CharString>
          <CharString index="118">
            -21 callgsubr
            89 450 rlineto
            69 18 45 44 59 117 callsubr
            -8 19 vhcurveto
            endchar
          </CharString>
          <CharString index="119">
            -5 -68 rlineto
            88 94 callgsubr
            -34 -174 rlineto
            return
          </CharString>
          <CharString index="120">
            76 12 61 30 67 vvcurveto
            39 -35 30 -96 4 vhcurveto
            -22 -57 rlineto
            65 callsubr
            return
          </CharString>
          <CharString index="121">
            21 57 rlineto
            2 hlineto
            -42 22 40 -27 49 hhcurveto
            135 128 148 188 116 -53 63 -87 -54 -54 -28 -37 -46 hvcurveto
            -2 hlineto
            24 94 35 174 -20 callsubr
            return
          </CharString>
          <CharString index="122">
            73 callgsubr
            36 66 callgsubr
            -36 -28 -30 -35 -32 22 -18 28 hvcurveto
            endchar
          </CharString>
          <CharString index="123">
            rmoveto
            84 50 56 56 16 hvcurveto
            -51 hlineto
            -31 -13 -33 -27 -42 hhcurveto
            -44 -18 26 32 -1 hvcurveto
            -49 hlineto
            -56 -8 25 -56 84 hhcurveto
            -53 139 66 callsubr
            return
          </CharString>
          <CharString index="124">
            65 callgsubr
            -63 hlineto
            return
          </CharString>
          <CharString index="125">
            -199 50 callsubr
            return
          </CharString>
          <CharString index="126">
            -20 -2 callgsubr
            return
          </CharString>
          <CharString index="127">
            -11 49 -59 hhcurveto
            -45 122 callgsubr
            return
          </CharString>
          <CharString index="128">
            53 41 -81 74 hhcurveto
            45 48 27 69 38 hvcurveto
            -56 37 rlineto
            -40 -21 -23 -18 -27 hhcurveto
            return
          </CharString>
          <CharString index="129">
            vstem
            16 -153 rmoveto
            84 30 68 72 106 vvcurveto
            52 -25 30 -38 -42 -27 -33 -36 -35 26 -19 34 vhcurveto
            2 2 0 2 hhcurveto
            -1 -36 -37 -53 -68 -29 rrcurveto
            return
          </CharString>
          <CharString index="130">
            86 32 callgsubr
            return
          </CharString>
          <CharString index="131">
            42 11 140 callsubr
            21 hvcurveto
            -58 hlineto
            -31 -13 -14 -16 -15 hhcurveto
            return
          </CharString>
          <CharString index="132">
            -6 callgsubr
            -128 -148 -188 hvcurveto
            return
          </CharString>
          <CharString index="133">
            -40 -15 51 -54 hhcurveto
            -47 -45 -46 -72 -18 hvcurveto
            return
          </CharString>
          <CharString index="134">
            -36 callgsubr
            109 -21 return
          </CharString>
          <CharString index="135">
            57 20 29 38 50 vvcurveto
            58 -48 38 -68 -45 -38 -10 -28 -43 vhcurveto
            35 -54 rlineto
            20 27 21 8 26 hhcurveto
            32 20 -18 -27 -33 -24 -35 -82 hvcurveto
            return
          </CharString>
          <CharString index="136">
            -70 -202 80 callgsubr
            return
          </CharString>
          <CharString index="137">
            41 44 72 20 hvcurveto
            -58 hlineto
            -31 return
          </CharString>
          <CharString index="138">
            21 72 callgsubr
            return
          </CharString>
          <CharString index="139">
            rmoveto
            76 hlineto
            -58 145 rlineto
            -101 hlineto
            endchar
          </CharString>
          <CharString index="140">
            30 callgsubr
            48 callsubr
            -40 -14 30 41 4 hvcurveto
            -59 hlineto
            -67 -12 28 -64 83 hhcurveto
            endchar
          </CharString>
          <CharString index="141">
            -31 -22 46 -44 hhcurveto
            -42 -40 -38 -65 -18 hvcurveto
            endchar
          </CharString>
          <CharString index="142">
            231 0 106 403 145 0 -20 return
          </CharString>
          <CharString index="143">
            -296 rlineto
            107 hlineto
            return
          </CharString>
          <CharString index="144">
            hlineto
            131 654 rlineto
            return
          </CharString>
          <CharString index="145">
            rlineto
            -249 hlineto
            return
          </CharString>
          <CharString index="146">
            145 rlineto
            -83 hlineto
            return
          </CharString>
          <CharString index="147">
            115 28 75 90 112 vvcurveto
            51 -25 31 -45 -48 -30 -38 -40 -37 28 -23 38 vhcurveto
            -12 -48 -40 -42 -69 -23 rrcurveto
            return
          </CharString>
          <CharString index="148">
            rmoveto
            45 29 -34 -71 -127 -77 -107 -83 -31 -29 17 41 -21 hvcurveto
            42 210 rlineto
            48 37 50 23 38 hhcurveto
            endchar
          </CharString>
          <CharString index="149">
            51 hlineto
            28 10 15 16 20 hhcurveto
            return
          </CharString>
          <CharString index="150">
            rmoveto
            46 callsubr
            return
          </CharString>
          <CharString index="151">
            rmoveto
            87 hlineto
            132 114 rlineto
            -115 hlineto
            -197 -234 rmoveto
            252 hlineto
            15 72 rlineto
            -252 hlineto
            endchar
          </CharString>
          <CharString index="152">
            42 -86 rlineto
            71 hlineto
            -65 145 rlineto
            return
          </CharString>
          <CharString index="153">
            54 -4 18 -11 -20 vvcurveto
            -25 return
          </CharString>
          <CharString index="154">
            21 60 callgsubr
            return
          </CharString>
          <CharString index="155">
            144 callsubr
            -41 hhcurveto
            return
          </CharString>
          <CharString index="156">
            -52 -38 -50 -22 -39 hhcurveto
            return
          </CharString>
          <CharString index="157">
            0 91 472 91 return
          </CharString>
          <CharString index="158">
            114 rlineto
            -103 hlineto
            return
          </CharString>
          <CharString index="159">
            hlineto
            -321 -397 -14 -74 rlineto
            267 hlineto
            -33 -165 rlineto
            -110 249 rmoveto
            142 175 25 33 return
          </CharString>
          <CharString index="160">
            35 167 rmoveto
            return
          </CharString>
          <CharString index="161">
            100 callsubr
            51 -146 100 callsubr
            endchar
          </CharString>
          <CharString index="162">
            60 -60 145 hstemhm
            return
          </CharString>
          <CharString index="163">
            27 109 rmoveto
            return
          </CharString>
          <CharString index="164">
            -6 -10 -21 hvcurveto
            43 156 rlineto
            228 hlineto
            18 90 rlineto
            -321 hlineto
            -79 -308 42 -34 rlineto
            23 return
          </CharString>
          <CharString index="165">
            155 -447 133 callsubr
            -45 -41 71 callsubr
          </CharString>
          <CharString index="166">
            -62 -6 32 -50 75 hhcurveto
            return
          </CharString>
          <CharString index="167">
            hstemhm
            47 110 return
          </CharString>
          <CharString index="168">
            vstem
            143 62 rmoveto
            45 29 -81 157 137 154 -35 38 -155 -144 -14 -80 rlineto
            return
          </CharString>
          <CharString index="169">
            99 callgsubr
            35 111 return
          </CharString>
          <CharString index="170">
            hlineto
            121 146 rlineto
            -91 hlineto
            return
          </CharString>
          <CharString index="171">
            -27 callsubr
            89 6 return
          </CharString>
          <CharString index="172">
            54 -3 17 -12 -20 vvcurveto
            -25 return
          </CharString>
          <CharString index="173">
            rmoveto
            26 9 17 15 15 hhcurveto
            return
          </CharString>
          <CharString index="174">
            123 callgsubr
            21 return
          </CharString>
          <CharString index="175">
            -29 callgsubr
            22 -18 28 hvcurveto
            endchar
          </CharString>
          <CharString index="176">
            -42 -11 49 -59 hhcurveto
            -44 -41 -43 -73 -21 hvcurveto
            endchar
          </CharString>
          <CharString index="177">
            rmoveto
            90 hlineto
            133 128 callsubr
          </CharString>
          <CharString index="178">
            -36 23 -26 36 hvcurveto
            endchar
          </CharString>
          <CharString index="179">
            32 hmoveto
            223 hlineto
            155 122 62 150 70 -46 41 -70 17 hvcurveto
            1 4 rlineto
            return
          </CharString>
          <CharString index="180">
            50 349 rmoveto
            41 18 -38 -55 -96 -40 -94 -62 -41 -18 38 55 97 40 93 62 hvcurveto
            return
          </CharString>
          <CharString index="181">
            rmoveto
            -88 hlineto
            -71 -66 rlineto
            -2 hlineto
            -46 66 rlineto
            -80 hlineto
            69 -114 rlineto
            103 hlineto
            endchar
          </CharString>
          <CharString index="182">
            708 104 32 114 hstem
            -31 102 74 101 vstem
            return
          </CharString>
          <CharString index="183">
            53.5 -53.5 56 -56 return
          </CharString>
          <CharString index="184">
            -18 callgsubr
            hstemhm
            return
          </CharString>
          <CharString index="185">
            76 -21 71 77 74 -46 71 hintmask 11101000
            return
          </CharString>
          <CharString index="186">
            114 rlineto
            -111 hlineto
            return
          </CharString>
          <CharString index="187">
            5 69 rlineto
            -87 hlineto
            return
          </CharString>
          <CharString index="188">
            rmoveto
            249 hlineto
            return
          </CharString>
          <CharString index="189">
            rmoveto
            28 23 22 26 26 -21 14 -23 -28 -23 -23 -25 -26 21 -14 23 hvcurveto
            endchar
          </CharString>
          <CharString index="190">
            93 573 -20 return
          </CharString>
          <CharString index="191">
            42 callsubr
            hintmask 11111010
            31 20 -45 45 hhcurveto
            41 40 38 65 return
          </CharString>
          <CharString index="192">
            54 rmoveto
            -84 callsubr
            return
          </CharString>
          <CharString index="193">
            580 104 42 105 hstem
            -59 101 76 100 vstem
            return
          </CharString>
          <CharString index="194">
            -7 callsubr
            69 145 return
          </CharString>
          <CharString index="195">
            19 callsubr
            69 return
          </CharString>
          <CharString index="196">
            86 -26 callgsubr
            return
          </CharString>
          <CharString index="197">
            80 rmoveto
            -45 26 46 -35 69 hhcurveto
            79 67 45 79 34 -22 34 -41 18 hvcurveto
            return
          </CharString>
          <CharString index="198">
            -218 125 81 -37 callgsubr
            60 callsubr
            -6 133 return
          </CharString>
          <CharString index="199">
            139 callgsubr
            -102 hlineto
            endchar
          </CharString>
          <CharString index="200">
            22 74 vvcurveto
            40 -33 20 -53 10 vhcurveto
            endchar
          </CharString>
          <CharString index="201">
            -12 84 493 83 hstem
            40 100 return
          </CharString>
          <CharString index="202">
            22 callgsubr
            -35 return
          </CharString>
          <CharString index="203">
            514 570 rmoveto
            48 -33 -47 36 -69 hhcurveto
            -125 -95 -88 -138 return
          </CharString>
          <CharString index="204">
            35 66 callgsubr
            -35 -28 -30 -35 -32 21 -18 29 hvcurveto
            return
          </CharString>
          <CharString index="205">
            -46 34 -24 46 96 callgsubr
            return
          </CharString>
          <CharString index="206">
            -44 callgsubr
            101 145 return
          </CharString>
          <CharString index="207">
            rmoveto
            72 63 callsubr
            return
          </CharString>
          <CharString index="208">
            50 callgsubr
            endchar
          </CharString>
          <CharString index="209">
            rlineto
            -41 callgsubr
            return
          </CharString>
          <CharString index="210">
            -127 -77 -107 -83 -31 -29 18 42 -21 vhcurveto
            42 208 rlineto
            return
          </CharString>
          <CharString index="211">
            -64 -59 -29 -50 -60 vhcurveto
            53 -64 rlineto
            35 40 38 22 39 hhcurveto
            return
          </CharString>
          <CharString index="212">
            103 -36 callgsubr
            76 93 492 return
          </CharString>
          <CharString index="213">
            rmoveto
            -82 hlineto
            64 -116 rlineto
            63 hlineto
            return
          </CharString>
          <CharString index="214">
            rmoveto
            31 13 14 17 15 hhcurveto
            return
          </CharString>
          <CharString index="215">
            -117 0 85 321 85 return
          </CharString>
          <CharString index="216">
            76 -20 71 77 73 -46 71 return
          </CharString>
          <CharString index="217">
            hlineto
            59 callsubr
            return
          </CharString>
          <CharString index="218">
            105 36 59 -17 59 hstemhm
            return
          </CharString>
          <CharString index="219">
            -214 45 190 -21 return
          </CharString>
          <CharString index="220">
            rlineto
            -80 hlineto
            hintmask 11010000
            -42 -25 -46 -17 -64 -9 rrcurveto
            hintmask 10110000
            return
          </CharString>
          <CharString index="221">
            -50 180 77 146 77 hstem
            48 424 vstem
            472 return
          </CharString>
          <CharString index="222">
            169 -88 106 -148 -182 -144 -187 -216 return
          </CharString>
          <CharString index="223">
            -13 -65 rcurveline
            406 hlineto
            16 91 rlineto
            -247 hlineto
            1 4 return
          </CharString>
          <CharString index="224">
            vvcurveto
            18 -3 17 return
          </CharString>
          <CharString index="225">
            717 rmoveto
            -110 hlineto
            -116 -145 rlineto
            83 hlineto
            return
          </CharString>
          <CharString index="226">
            105 vstem
            -12 hmoveto
            411 hlineto
            17 91 rlineto
            -244 hlineto
            return
          </CharString>
          <CharString index="227">
            -31 -15 42 -48 hhcurveto
            -38 -39 -36 -64 -19 hvcurveto
            endchar
          </CharString>
          <CharString index="228">
            -9 -3 -11 hhcurveto
            -19 -16 13 22 return
          </CharString>
          <CharString index="229">
            -21 411 92 return
          </CharString>
          <CharString index="230">
            135 callsubr
            vhcurveto
            return
          </CharString>
          <CharString index="231">
            132 callsubr
            98 return
          </CharString>
          <CharString index="232">
            9 117 -26 callgsubr
            36 -191 rlineto
            39 hlineto
            return
          </CharString>
          <CharString index="233">
            -36 -12 -30 -24 -39 hhcurveto
            -36 -23 22 38 2 hvcurveto
            return
          </CharString>
          <CharString index="234">
            818 rmoveto
            -118 hlineto
            -104 -114 rlineto
            89 hlineto
            return
          </CharString>
          <CharString index="235">
            114 rlineto
            -119 hlineto
            endchar
          </CharString>
          <CharString index="236">
            67 callgsubr
            46 return
          </CharString>
          <CharString index="237">
            hlineto
            63 69 -26 callgsubr
            return
          </CharString>
          <CharString index="238">
            -152 59 742 59 return
          </CharString>
          <CharString index="239">
            -181 21 63 callgsubr
            return
          </CharString>
          <CharString index="240">
            rmoveto
            35 callgsubr
            return
          </CharString>
          <CharString index="241">
            35 38 20 24 24 vhcurveto
            4 hlineto
            -1 -36 rlineto
            return
          </CharString>
          <CharString index="242">
            92 -53 63 -77 -116 -71 -127 -132 return
          </CharString>
          <CharString index="243">
            -301 -250 1000 hstem
            92 69 vstem
            92 return
          </CharString>
          <CharString index="244">
            37 49 callgsubr
            return
          </CharString>
          <CharString index="245">
            -48 -57 -57 42 -25 51 hvcurveto
            return
          </CharString>
          <CharString index="246">
            rmoveto
            40 21 23 18 27 hhcurveto
            return
          </CharString>
          <CharString index="247">
            -50 59 hhcurveto
            44 41 44 72 return
          </CharString>
          <CharString index="248">
            654 rlineto
            -104 hlineto
            return
          </CharString>
          <CharString index="249">
            113 65 113 return
          </CharString>
          <CharString index="250">
            rmoveto
            -45 26 47 -35 return
          </CharString>
          <CharString index="251">
            -40 -13 -27 -31 return
          </CharString>
          <CharString index="252">
            -222 126 return
          </CharString>
          <CharString index="253">
            -5 -16 -80 rlineto
            return
          </CharString>
          <CharString index="254">
            -10 -51 rlineto
            70 hlineto
            -114 -565 rlineto
            return
          </CharString>
          <CharString index="255">
            -88 rmoveto
            -39 -33 -32 -38 -36 30 -20 32 return
          </CharString>
          <CharString index="256">
            -205 256 59 105 48 68 61 hstem
            return
          </CharString>
          <CharString index="257">
            hmoveto
            111 hlineto
            43 202 58 186 return
          </CharString>
          <CharString index="258">
            -50 callsubr
            66 335 rlineto
            53 return
          </CharString>
          <CharString index="259">
            16 35 hhcurveto
            59 30 -33 -48 -57 -44 -58 return
          </CharString>
          <CharString index="260">
            hstemhm
            58 111 return
          </CharString>
          <CharString index="261">
            51 63 20 hvcurveto
            return
          </CharString>
          <CharString index="262">
            rlineto
            -217 hlineto
            return
          </CharString>
        <CharString name=".notdef">
          102 0 72 516 72 hstem
          32 611 vstem
          32 hmoveto
          481 hlineto
          130 660 rlineto
          -481 hlineto
          124 -320 rmoveto
          -150 -214 85 428 rlineto
          175 -214 rmoveto
          152 214 -88 -428 rlineto
          -198 56 rmoveto
          65 99 -26 callgsubr
          25 -99 33 -110 rlineto
          -205 hlineto
          170 324 rmoveto
          -4 hlineto
          -26 95 -29 97 rlineto
          190 hlineto
          -67 -97 rlineto
          endchar
        </CharString>
        <CharString name="A">
          -72 callsubr
          hstem
          -58 548 vstem
          192 266 -78 callgsubr
        </CharString>
        <CharString name="AE">
          277 0 91 83 85 37 91 176 91 -80 80 hstemhm
          -34 876 hintmask 11110100
          399 259 rmoveto
          -145 hlineto
          73 114 rlineto
          hintmask 11101100
          44 68 43 64 45 69 rrcurveto
          3 hlineto
          hintmask 11110100
          362 -11 rmoveto
          18 91 rlineto
          -436 hlineto
          -440 -654 rlineto
          122 hlineto
          111 174 rlineto
          184 hlineto
          -35 -174 rlineto
          373 -63 callgsubr
          -266 hlineto
          42 205 rlineto
          216 hlineto
          18 91 155 callsubr
          35 176 rlineto
          endchar
        </CharString>
        <CharString name="Aacute">
          -72 callsubr
          50 114 hstem
          -58 570 vstem
          512 127 callsubr
          -187 -438 -104 callsubr
          endchar
        </CharString>
        <CharString name="Abreve">
          -72 callsubr
          50 57 hstem
          251 59 vstem
          436 818 rmoveto
          -30 -12 -30 callgsubr
          31 -52 75 hhcurveto
          82 44 154 callsubr
          -305 -552 -104 callsubr
          endchar
        </CharString>
        <CharString name="Acircumflex">
          -72 callsubr
          50 114 hstem
          -58 553 vstem
          366 770 rmoveto
          -74 callgsubr
          -114 -114 rlineto
          87 hlineto
          -103 -438 -104 callsubr
          endchar
        </CharString>
        <CharString name="Adieresis">
          -72 callsubr
          54 114 hstem
          220 110 68 111 vstem
          447 708 rmoveto
          -84 callsubr
          -179 hmoveto
          6 callsubr
          -76 -442 -104 callsubr
          endchar
        </CharString>
        <CharString name="Agrave">
          -72 callsubr
          50 114 hstem
          -58 548 vstem
          408 704 rmoveto
          -62 79 callsubr
          91 -114 rlineto
          -134 -438 -78 callgsubr
        </CharString>
        <CharString name="Amacron">
          -72 callsubr
          70 72 hstem
          -58 554 vstem
          496 127 callgsubr
          -290 -458 -104 callsubr
          endchar
        </CharString>
        <CharString name="Aogonek">
          -15 -216 71 166 -21 184 82 302 86 hstem
          302 87 vstem
          192 266 rmoveto
          49 99 34 68 29 64 32 71 rlinecurve
          4 hlineto
          3 -71 5 -65 4 -67 7 -99 rcurveline
          61 388 rmoveto
          1 callsubr
          13 -184 rlineto
          20 hlineto
          -40 -28 -56 -54 -62 58 callgsubr
          35 30 42 71 33 hvcurveto
          endchar
        </CharString>
        <CharString name="Aring">
          -72 callsubr
          43 45 97 45 hstem
          268 56 88 56 vstem
          373 839 149 callgsubr
          -14 17 25 29 22 26 27 hvcurveto
          -12 -142 rmoveto
          58 49 46 58 56 -44 27 -49 -58 -49 138 callsubr
          -169 -431 -78 callgsubr
        </CharString>
        <CharString name="Atilde">
          -72 callsubr
          51 132 callgsubr
          -58 582 hintmask 11110100
          466 823 rmoveto
          -32 -12 -15 -17 -19 hhcurveto
          hintmask 11101100
          27 callgsubr
          58 hlineto
          38 callgsubr
          hintmask 11110100
          133 callgsubr
          -332 -557 -104 callsubr
          endchar
        </CharString>
        <CharString name="B">
          50 0 115 callgsubr
          hintmask 11110000
          72 callsubr
          hintmask 11101000
          6 callgsubr
          hintmask 11110000
          148 callgsubr
          endchar
        </CharString>
        <CharString name="C">
          15 -12 93 492 93 113 callgsubr
          -90 callgsubr
          endchar
        </CharString>
        <CharString name="Cacute">
          15 -12 93 492 93 38 114 113 callgsubr
          -90 callgsubr
          300 447 -38 callgsubr
        </CharString>
        <CharString name="Ccaron">
          15 -12 93 492 93 38 114 113 callgsubr
          -90 callgsubr
          528 561 74 callsubr
        </CharString>
        <CharString name="Ccedilla">
          15 -216 45 184 -21 581 93 113 callgsubr
          83 82 vstem
          567 566 rmoveto
          60 -35 -57 40 -75 hhcurveto
          -200 -143 -193 -216 -145 70 -99 120 -21 hvcurveto
          -46 -67 rlineto
          -1 callsubr
          24 37 77 5 61 36 41 37 rlinecurve
          -47 69 rlineto
          -32 -38 -41 -22 -46 hhcurveto
          -106 -45 74 110 152 94 156 133 43 31 -24 -40 25 hvcurveto
          endchar
        </CharString>
        <CharString name="Ccircumflex">
          15 -12 93 492 93 38 114 113 callgsubr
          -90 callgsubr
          217 447 75 callgsubr
        </CharString>
        <CharString name="Cdotaccent">
          15 -12 93 492 93 43 126 113 callgsubr
          198 133 -90 callgsubr
          369 452 83 callgsubr
        </CharString>
        <CharString name="D">
          60 0 87 480 87 hstem
          468 -78 callsubr
          endchar
        </CharString>
        <CharString name="Dcaron">
          60 0 87 480 87 50 114 hstem
          468 -78 callsubr
          326 731 -63 callsubr
        </CharString>
        <CharString name="Dcroat">
          -44 callsubr
        </CharString>
        <CharString name="E">
          -60 callgsubr
          hstem
          32 505 vstem
          -103 callgsubr
          endchar
        </CharString>
        <CharString name="Eacute">
          -60 callgsubr
          50 114 hstem
          32 505 vstem
          -103 callgsubr
          135 50 71 callgsubr
        </CharString>
        <CharString name="Ebreve">
          -60 callgsubr
          50 57 hstem
          258 59 vstem
          -103 callgsubr
          196 50 -9 callgsubr
        </CharString>
        <CharString name="Ecaron">
          -60 callgsubr
          50 114 hstem
          32 505 vstem
          -103 callgsubr
          363 164 -63 callsubr
        </CharString>
        <CharString name="Ecircumflex">
          -60 callgsubr
          50 114 hstem
          32 505 vstem
          -103 callgsubr
          53 50 -76 callsubr
          endchar
        </CharString>
        <CharString name="Edieresis">
          -60 callgsubr
          54 114 hstem
          227 111 67 111 vstem
          -103 callgsubr
          114 54 -35 callgsubr
        </CharString>
        <CharString name="Edotaccent">
          -60 callgsubr
          55 126 hstem
          305 134 vstem
          -103 callgsubr
          205 55 rmoveto
          39 33 9 callgsubr
        </CharString>
        <CharString name="Egrave">
          -60 callgsubr
          50 114 hstem
          32 505 vstem
          -103 callgsubr
          171 50 rmoveto
          83 hlineto
          -63 44 callgsubr
        </CharString>
        <CharString name="Emacron">
          -60 callgsubr
          70 72 hstem
          32 505 vstem
          -103 callgsubr
          75 70 rmoveto
          5 callgsubr
        </CharString>
        <CharString name="Eogonek">
          -29 -216 71 145 91 205 91 176 91 hstem
          222 87 vstem
          32 hmoveto
          285 hlineto
          -35 -23 -60 -58 -63 58 callgsubr
          37 45 65 61 8 hvcurveto
          18 91 rlineto
          -276 hlineto
          42 205 rlineto
          226 -63 callgsubr
          -227 hlineto
          35 176 rlineto
          268 -63 callgsubr
          -375 hlineto
          endchar
        </CharString>
        <CharString name="Eth">
          -44 callsubr
        </CharString>
        <CharString name="Euro">
          -50 -12 87 157 58 62 57 158 87 hstem
          80 107 vstem
          368 232 rmoveto
          12 58 rlineto
          -191 hlineto
          1 21 3 21 4 20 rrcurveto
          233 hlineto
          12 57 rlineto
          -229 hlineto
          94 31 59 64 74 hhcurveto
          40 21 -24 -37 18 hvcurveto
          78 51 rlineto
          55 -30 -43 42 -73 hhcurveto
          -124 -110 -97 -149 -49 hvcurveto
          -51 -4 -12 -52 rlineto
          49 hlineto
          -4 -20 -3 -22 -2 -21 -52 -5 rcurveline
          -12 -52 rlineto
          62 hlineto
          -158 3 76 -86 121 hhcurveto
          61 59 24 52 58 hvcurveto
          -52 64 rlineto
          -30 -30 -35 -23 -40 hhcurveto
          -69 -41 57 100 -4 hvcurveto
          endchar
        </CharString>
        <CharString name="F">
          -55 21 -21 279 91 193 91 hstem
          32 505 48 callgsubr
          56 279 rlineto
          226 -63 callgsubr
          -227 hlineto
          38 193 rlineto
          268 -63 callgsubr
          -375 hlineto
          endchar
        </CharString>
        <CharString name="G">
          18 callgsubr
          113 callgsubr
          vstem
          -102 callgsubr
          endchar
        </CharString>
        <CharString name="Gbreve">
          18 callgsubr
          38 57 113 callgsubr
          147 59 vstem
          -102 callgsubr
          357 447 -9 callgsubr
        </CharString>
        <CharString name="Gcaron">
          18 callgsubr
          38 114 113 callgsubr
          vstem
          -102 callgsubr
          524 561 -63 callsubr
        </CharString>
        <CharString name="Gcircumflex">
          18 callgsubr
          38 114 113 callgsubr
          vstem
          -102 callgsubr
          214 447 -76 callsubr
          endchar
        </CharString>
        <CharString name="Gdotaccent">
          18 callgsubr
          43 126 113 callgsubr
          194 134 vstem
          -102 callgsubr
          366 452 rmoveto
          39 33 9 callgsubr
        </CharString>
        <CharString name="H">
          94 21 -21 295 94 265 -20 hstem
          32 604 -68 callgsubr
          endchar
        </CharString>
        <CharString name="Hbar">
          106 21 -21 295 94 102 76 callsubr
          163 hstemhm
          37 672 hintmask 11001100
          481 389 rmoveto
          -259 hlineto
          21 102 rlineto
          258 hlineto
          hintmask 11010100
          208 56 rmoveto
          -88 hlineto
          hintmask 11001100
          21 107 -71 callsubr
          hintmask 11010100
          -21 -107 rlineto
          -259 hlineto
          hintmask 11001100
          22 107 -71 callsubr
          hintmask 11100100
          -22 -108 -62 -3 rlineto
          hintmask 11001100
          -11 -52 rlineto
          62 hlineto
          -98 -491 102 callsubr
          59 295 rlineto
          258 hlineto
          -59 -295 102 callsubr
          -30 callsubr
          89 hlineto
          endchar
        </CharString>
        <CharString name="Hcircumflex">
          94 21 -21 295 94 265 -20 70 114 hstem
          32 604 -68 callgsubr
          87 50 -5 callgsubr
        </CharString>
        <CharString name="I">
          10 callsubr
          hstem
          32 238 vstem
          -69 callgsubr
          endchar
        </CharString>
        <CharString name="I.a">
          18 callsubr
          hstem
          -7 389 vstem
          -93 callgsubr
          endchar
        </CharString>
        <CharString name="Iacute">
          10 callsubr
          70 114 hstem
          32 344 vstem
          -69 callgsubr
          -8 50 -38 callgsubr
        </CharString>
        <CharString name="Iacute.a">
          76 callgsubr
          419 vstem
          -93 callgsubr
          177 613 71 callgsubr
        </CharString>
        <CharString name="Icircumflex">
          10 callsubr
          70 114 hstem
          32 327 vstem
          -69 callgsubr
          -90 50 -76 callsubr
          endchar
        </CharString>
        <CharString name="Icircumflex.a">
          76 callgsubr
          401 vstem
          -93 callgsubr
          95 613 -76 callsubr
          endchar
        </CharString>
        <CharString name="Idieresis">
          10 callsubr
          74 114 hstem
          84 110 68 111 vstem
          -69 callgsubr
          -30 54 15 callgsubr
        </CharString>
        <CharString name="Idieresis.a">
          18 callsubr
          54 114 hstem
          119 111 67 111 vstem
          -93 callgsubr
          156 617 -35 callgsubr
        </CharString>
        <CharString name="Idotaccent">
          10 callsubr
          75 126 hstem
          162 134 vstem
          -69 callgsubr
          62 55 -28 callsubr
        </CharString>
        <CharString name="Idotaccent.a">
          18 callsubr
          55 126 hstem
          197 134 vstem
          -93 callgsubr
          247 618 rmoveto
          39 33 9 callgsubr
        </CharString>
        <CharString name="Igrave">
          10 callsubr
          70 114 hstem
          32 240 vstem
          -69 callgsubr
          28 50 rmoveto
          82 hlineto
          -62 44 callgsubr
        </CharString>
        <CharString name="Igrave.a">
          76 callgsubr
          389 vstem
          -93 callgsubr
          213 613 rmoveto
          83 hlineto
          -63 44 callgsubr
        </CharString>
        <CharString name="Imacron">
          10 callsubr
          90 72 hstem
          32 328 vstem
          -69 callgsubr
          -68 70 rmoveto
          5 callgsubr
        </CharString>
        <CharString name="Imacron.a">
          18 callsubr
          70 72 hstem
          -7 402 vstem
          -93 callgsubr
          117 633 rmoveto
          5 callgsubr
        </CharString>
        <CharString name="Iogonek">
          -271 -216 71 166 72 callgsubr
          hstem
          -37 86 vstem
          49 -110 rmoveto
          35 34 47 57 28 vhcurveto
          130 0 callsubr
          -130 -654 rlineto
          23 hlineto
          -32 -23 -60 -58 -63 vvcurveto
          -46 35 -26 49 27 40 11 17 24 vhcurveto
          -22 53 rlineto
          -7 -12 -9 -3 -10 hhcurveto
          -20 -16 13 22 hvcurveto
          endchar
        </CharString>
        <CharString name="Iogonek.a">
          -199 -216 71 145 91 472 91 hstem
          -1 87 vstem
          -7 hmoveto
          99 hlineto
          -33 -23 -60 -58 -63 vvcurveto
          -46 35 -26 50 27 39 11 17 24 vhcurveto
          -22 53 rlineto
          -7 -11 121 callsubr
          35 33 47 57 28 hvcurveto
          75 hlineto
          19 91 rlineto
          -77 hlineto
          96 472 rlineto
          74 hlineto
          19 91 rlineto
          -257 hlineto
          -19 -91 rlineto
          75 hlineto
          -96 -472 rlineto
          -73 hlineto
          endchar
        </CharString>
        <CharString name="Itilde">
          10 callsubr
          71 132 callgsubr
          32 356 hintmask 11011000
          -69 callgsubr
          -38 53 7 callsubr
        </CharString>
        <CharString name="Itilde.a">
          18 callsubr
          51 132 callgsubr
          -7 430 hintmask 11011000
          -93 callgsubr
          147 616 rmoveto
          38 callgsubr
          hintmask 11101000
          67 callgsubr
          47 45 -7 callgsubr
          -18 hhcurveto
          hintmask 11011000
          26 callsubr
          endchar
        </CharString>
        <CharString name="J">
          -70 32 callgsubr
          hstem
          -5 482 4 callgsubr
          endchar
        </CharString>
        <CharString name="Jcircumflex">
          -70 32 callgsubr
          70 114 hstem
          -5 569 4 callgsubr
          -108 510 -5 callgsubr
        </CharString>
        <CharString name="K">
          38 31 callsubr
          hstem
          32 588 -46 callsubr
          endchar
        </CharString>
        <CharString name="L">
          -63 0 91 563 -20 hstem
          32 387 vstem
          -66 callgsubr
          endchar
        </CharString>
        <CharString name="Lacute">
          -63 0 91 563 -20 70 114 hstem
          32 387 vstem
          -66 callgsubr
          3 50 -38 callgsubr
        </CharString>
        <CharString name="Lcaron">
          -63 0 91 419 144 -144 217 -73 -20 hstemhm
          32 459 hintmask 10011000
          -66 callgsubr
          hintmask 11001000
          268 -144 rmoveto
          hintmask 10101000
          48 154 13 63 rlineto
          -71 hlineto
          hintmask 11001000
          117 callgsubr
        </CharString>
        <CharString name="Ldot">
          -63 0 91 163 148 252 -20 hstemhm
          32 434 -142 142 hintmask 11110000
          -66 callgsubr
          hintmask 11101000
          222 -400 rmoveto
          48 34 42 42 36 -23 28 -36 -48 -35 -45 -41 -36 24 -26 36 hvcurveto
          endchar
        </CharString>
        <CharString name="Lslash">
          -63 0 91 563 -20 hstem
          -6 425 vstem
          158 91 rmoveto
          36 183 194 96 18 92 -193 -96 57 288 -71 callsubr
          -68 -343 -82 -40 -18 -92 82 40 -44 -219 rlineto
          369 -63 callgsubr
          endchar
        </CharString>
        <CharString name="M">
          179 21 -21 519 135 hstem
          32 689 -34 callsubr
          endchar
        </CharString>
        <CharString name="N">
          87 0 77 callsubr
          32 598 hintmask 01011000
          32 hmoveto
          103 hlineto
          59 300 rlineto
          hintmask 01101000
          -84 callgsubr
          hintmask 10011000
          -15 -71 -6 -85 -8 -67 rrcurveto
          -4 hlineto
          -38 141 -128 379 rlineto
          -106 hlineto
          endchar
        </CharString>
        <CharString name="Nacute">
          87 0 -18 callgsubr
          70 114 hstemhm
          32 598 -70 callsubr
          180 50 -38 callgsubr
        </CharString>
        <CharString name="Ncaron">
          87 0 -18 callgsubr
          70 114 hstemhm
          32 598 -70 callsubr
          408 164 -5 callsubr
        </CharString>
        <CharString name="Ntilde">
          87 0 -18 callgsubr
          71 132 callgsubr
          32 598 hintmask 01010110
          32 hmoveto
          103 hlineto
          59 300 rlineto
          hintmask 01100110
          -84 callgsubr
          hintmask 10010110
          -15 -71 -6 -85 -8 -67 rrcurveto
          -4 hlineto
          -38 141 -128 379 rlineto
          -106 hlineto
          150 53 rmoveto
          38 callgsubr
          hintmask 01011010
          133 callgsubr
          -58 hlineto
          -32 -12 -15 -17 -19 hhcurveto
          hintmask 01010110
          27 callgsubr
          endchar
        </CharString>
        <CharString name="O">
          -10 callsubr
          93 hstem
          10 callgsubr
          vstem
          -107 callsubr
          endchar
        </CharString>
        <CharString name="OE">
          281 0 87 -87 91 205 91 176 91 -87 87 153 callsubr
          hintmask 01110100
          58 256 rmoveto
          -166 102 -90 182 vhcurveto
          383 -63 callgsubr
          -261 hlineto
          42 205 rlineto
          211 -63 callgsubr
          -211 hlineto
          34 176 rlineto
          252 -63 callgsubr
          -431 hlineto
          -215 -142 -150 -248 hvcurveto
          hintmask 10101100
          412 311 rmoveto
          -95 -480 rlineto
          -30 hlineto
          -111 -65 60 116 193 101 111 147 hvcurveto
          endchar
        </CharString>
        <CharString name="Oacute">
          -10 callsubr
          93 38 114 hstem
          10 callgsubr
          vstem
          -107 callsubr
          -31 131 71 callgsubr
        </CharString>
        <CharString name="Ocircumflex">
          -10 callsubr
          93 38 114 hstem
          10 callgsubr
          vstem
          -107 callsubr
          -113 131 -76 callsubr
          endchar
        </CharString>
        <CharString name="Odieresis">
          -10 callsubr
          93 42 114 153 callsubr
          108 111 67 111 -56 110 hintmask 11111010
          -107 callsubr
          -52 135 rmoveto
          -84 callsubr
          hintmask 11111100
          -3 callgsubr
        </CharString>
        <CharString name="Ograve">
          -10 callsubr
          93 38 114 hstem
          10 callgsubr
          vstem
          -107 callsubr
          5 131 rmoveto
          83 hlineto
          -63 44 callgsubr
        </CharString>
        <CharString name="Ohorn">
          -10 callsubr
          63 -63 93 -11 callgsubr
          -27 87 hintmask 10111000
          300 81 -51 callgsubr
          hintmask 11010100
          -35 callsubr
          hintmask 10111000
          -79 callgsubr
          hintmask 10110100
          -8 callsubr
        </CharString>
        <CharString name="Ohungarumlaut">
          -10 callsubr
          93 38 115 hstem
          10 callgsubr
          vstem
          -107 callsubr
          -86 131 79 callgsubr
          74 -115 79 callgsubr
          endchar
        </CharString>
        <CharString name="Omacron">
          -10 callsubr
          93 58 72 hstem
          10 callgsubr
          vstem
          -107 callsubr
          -91 151 rmoveto
          5 callgsubr
        </CharString>
        <CharString name="Oslash">
          103 -12 93 -72 -21 585 93 0 -20 -11 callgsubr
          hintmask 10101100
          504 449 rmoveto
          4 -20 2 -22 -24 vvcurveto
          -152 -94 -150 -116 -44 -32 18 32 -22 vhcurveto
          -27 69 rmoveto
          -4 22 -2 23 26 vvcurveto
          152 93 150 116 45 34 -20 -34 22 vhcurveto
          hintmask 10011100
          213 128 rmoveto
          hintmask 01101100
          -48 45 -91 -95 rlineto
          44 -40 -58 25 -71 hhcurveto
          -182 -144 -187 -216 -59 11 -52 21 -42 hvcurveto
          -96 -100 rlineto
          hintmask 10101100
          50 -45 84 89 rlineto
          -43 41 56 -23 69 hhcurveto
          183 143 187 216 58 -10 50 -20 41 hvcurveto
          endchar
        </CharString>
        <CharString name="Otilde">
          -10 callsubr
          93 39 69 -18 69 -11 callgsubr
          hintmask 11011100
          -107 callsubr
          -61 134 rmoveto
          38 callgsubr
          hintmask 11101100
          67 callgsubr
          47 45 -7 callgsubr
          -18 hhcurveto
          hintmask 11011100
          26 callsubr
          endchar
        </CharString>
        <CharString name="P">
          23 21 -21 245 86 237 86 hstem
          466 107 48 callgsubr
          48 245 rlineto
          91 hlineto
          166 128 71 171 120 -90 47 -125 hvcurveto
          -196 hlineto
          44 -323 rmoveto
          46 237 rlineto
          86 hlineto
          82 46 -29 -67 -93 -63 -48 -115 hvcurveto
          endchar
        </CharString>
        <CharString name="Q">
          103 -169 88 72 90 -69 -21 582 93 -11 callgsubr
          hintmask 10111100
          378 573 rmoveto
          88 44 -74 -116 hvcurveto
          hintmask 11011100
          -152 -94 -150 -116 -88 -43 74 116 vhcurveto
          hintmask 10111100
          152 93 150 116 vhcurveto
          160 -646 rmoveto
          -5 -19 -18 -3 -23 hhcurveto
          -63 -57 22 50 -26 hvcurveto
          165 24 123 175 201 vvcurveto
          115 callsubr
          -139 60 -96 102 -30 vhcurveto
          -113 40 89 -54 122 hhcurveto
          23 28 5 8 22 hvcurveto
          endchar
        </CharString>
        <CharString name="R">
          32 21 47 callgsubr
          hstem
          462 107 vstem
          209 344 -97 callgsubr
        </CharString>
        <CharString name="Racute">
          32 21 47 callgsubr
          50 114 hstem
          462 107 vstem
          532 128 callgsubr
          -189 -360 -97 callgsubr
        </CharString>
        <CharString name="Rcaron">
          32 21 47 callgsubr
          50 114 hstem
          462 107 vstem
          423 704 rmoveto
          114 114 rlineto
          -87 hlineto
          -71 -66 rlineto
          -3 hlineto
          -46 66 rlineto
          -80 hlineto
          70 -114 rlineto
          -111 -360 -97 callgsubr
        </CharString>
        <CharString name="S">
          -26 -12 92 493 93 hstem
          113 111 136 112 vstem
          -101 callsubr
          endchar
        </CharString>
        <CharString name="Sacute">
          -26 -12 92 493 93 42 114 hstem
          113 111 136 112 vstem
          -101 callsubr
          204 541 -38 callgsubr
        </CharString>
        <CharString name="Scaron">
          -26 -12 92 493 93 42 114 hstem
          113 111 136 112 vstem
          -101 callsubr
          432 655 -5 callsubr
        </CharString>
        <CharString name="Scircumflex">
          -26 -12 92 493 93 42 114 hstem
          113 111 136 112 vstem
          -101 callsubr
          122 541 -76 callsubr
          endchar
        </CharString>
        <CharString name="T">
          -23 21 -21 562 92 hstem
          88 488 -55 callgsubr
          endchar
        </CharString>
        <CharString name="Tcaron">
          -23 21 -21 562 92 50 114 hstem
          88 488 -55 callgsubr
          237 256 -63 callsubr
        </CharString>
        <CharString name="Thorn">
          35 21 -21 141 86 237 86 -86 196 hstemhm
          447 107 hintmask 11011000
          32 hmoveto
          106 hlineto
          28 141 rlineto
          93 hlineto
          165 130 71 172 hvcurveto
          hintmask 11101000
          119 -85 47 -119 vhcurveto
          -101 hlineto
          hintmask 11011000
          21 110 -71 callsubr
          22 -433 rmoveto
          47 237 rlineto
          93 hlineto
          79 44 -28 -68 -92 -63 -49 -117 hvcurveto
          endchar
        </CharString>
        <CharString name="U">
          23 callsubr
          147 callgsubr
          vstem
          -104 callgsubr
          endchar
        </CharString>
        <CharString name="Uacute">
          23 callsubr
          70 114 147 callgsubr
          vstem
          -104 callgsubr
          180 50 -38 callgsubr
        </CharString>
        <CharString name="Ubreve">
          23 callsubr
          70 57 147 callgsubr
          115 59 vstem
          -104 callgsubr
          241 50 rmoveto
          82 44 154 callsubr
          -62 hlineto
          -30 -11 -30 callgsubr
          31 -52 75 hhcurveto
          endchar
        </CharString>
        <CharString name="Ucircumflex">
          23 callsubr
          70 114 147 callgsubr
          vstem
          -104 callgsubr
          97 50 75 callgsubr
        </CharString>
        <CharString name="Udieresis">
          23 callsubr
          74 114 147 callgsubr
          83 111 68 111 vstem
          -104 callgsubr
          158 85 callsubr
          179 hmoveto
          -84 callsubr
          endchar
        </CharString>
        <CharString name="Ugrave">
          23 callsubr
          70 114 147 callgsubr
          vstem
          -104 callgsubr
          216 50 rmoveto
          82 hlineto
          -62 44 callgsubr
        </CharString>
        <CharString name="Uhorn">
          104 32 callgsubr
          147 callgsubr
          487 86 vstem
          665 761 -95 callsubr
        </CharString>
        <CharString name="Uhungarumlaut">
          23 callsubr
          70 115 147 callgsubr
          vstem
          -104 callgsubr
          125 50 79 callgsubr
          73 -115 rmoveto
          74 hlineto
          107 115 rlineto
          -94 hlineto
          endchar
        </CharString>
        <CharString name="Umacron">
          23 callsubr
          90 72 147 callgsubr
          vstem
          -104 callgsubr
          119 70 rmoveto
          252 hlineto
          15 72 rlineto
          -252 hlineto
          endchar
        </CharString>
        <CharString name="Uogonek">
          86 -216 71 158 -21 662 -20 hstemhm
          77 108 -22 87 hintmask 11110000
          632 654 rmoveto
          -106 -100 callgsubr
          -70 -350 rlineto
          -6 -33 -6 -37 -29 vvcurveto
          -126 60 -71 112 -16 vhcurveto
          hintmask 11101000
          -39 -28 -47 -55 -53 vvcurveto
          25 callgsubr
          -19 -16 13 22 33 30 45 73 25 hvcurveto
          107 39 62 66 31 166 rrcurveto
          endchar
        </CharString>
        <CharString name="Uring">
          23 callsubr
          63 45 97 45 147 callgsubr
          132 55 89 55 vstem
          -104 callgsubr
          251 43 rmoveto
          58 48 46 58 56 -43 27 -49 -58 -49 138 callsubr
          12 142 149 callgsubr
          -15 17 25 29 22 26 28 hvcurveto
          endchar
        </CharString>
        <CharString name="Utilde">
          23 callsubr
          71 132 callgsubr
          77 108 hintmask 11011000
          -104 callgsubr
          149 53 rmoveto
          32 13 15 17 18 hhcurveto
          hintmask 11101000
          129 callsubr
          45 46 72 19 hvcurveto
          -58 hlineto
          -32 -12 -15 -17 -19 hhcurveto
          hintmask 11011000
          -39 -16 51 -54 hhcurveto
          -46 -45 -46 -72 -19 hvcurveto
          endchar
        </CharString>
        <CharString name="V">
          -18 0 99 555 -20 hstem
          80 527 vstem
          138 hmoveto
          130 hlineto
          339 654 rlineto
          -117 hlineto
          -164 -342 -32 -70 -33 -73 -32 -70 rlinecurve
          -4 hlineto
          -2 71 -5 72 -4 70 -22 342 rcurveline
          -112 hlineto
          endchar
        </CharString>
        <CharString name="W">
          35 callsubr
          29 callgsubr
          hintmask 10111000
          36 callgsubr
          hintmask 11011000
          -94 callgsubr
          endchar
        </CharString>
        <CharString name="Wacute">
          35 callsubr
          70 114 29 callgsubr
          hintmask 10111100
          36 callgsubr
          hintmask 11011100
          -94 callgsubr
          304 50 -38 callgsubr
        </CharString>
        <CharString name="Wcircumflex">
          35 callsubr
          70 114 29 callgsubr
          hintmask 10111100
          36 callgsubr
          hintmask 11011100
          -94 callgsubr
          221 50 -5 callgsubr
        </CharString>
        <CharString name="Wdieresis">
          35 callsubr
          74 114 hstemhm
          94 110.5 130.5 111 -14 91 -9 110 hintmask 10111010
          36 callgsubr
          hintmask 11011010
          -94 callgsubr
          hintmask 10111101
          282 85 callsubr
          178 hmoveto
          6 callsubr
          endchar
        </CharString>
        <CharString name="Wgrave">
          35 callsubr
          70 114 29 callgsubr
          hintmask 10111100
          36 callgsubr
          hintmask 11011100
          -94 callgsubr
          340 50 rmoveto
          82 hlineto
          -62 44 callgsubr
        </CharString>
        <CharString name="X">
          -20 31 callsubr
          hstem
          -36 612 vstem
          -36 hmoveto
          115 hlineto
          109 160 21 34 23 35 25 37 rlinecurve
          3 hlineto
          10 -37 9 -33 10 -33 48 -163 rcurveline
          119 hlineto
          -114 332 234 322 rlineto
          -115 hlineto
          -99 -150 -19 -30 -23 -34 -22 -36 rlinecurve
          -4 hlineto
          -10 37 -7 31 -8 30 -44 152 rcurveline
          -119 hlineto
          105 -316 rlineto
          endchar
        </CharString>
        <CharString name="Y">
          112 callgsubr
          hstem
          82 488 vstem
          -96 callgsubr
          endchar
        </CharString>
        <CharString name="Yacute">
          112 callgsubr
          70 114 hstem
          82 488 vstem
          -96 callgsubr
          71 458 -38 callgsubr
        </CharString>
        <CharString name="Ycircumflex">
          112 callgsubr
          70 114 hstem
          82 488 vstem
          -96 callgsubr
          -11 458 -76 callsubr
          endchar
        </CharString>
        <CharString name="Ydieresis">
          112 callgsubr
          74 114 hstem
          188 110 68 111 vstem
          -96 callgsubr
          49 462 15 callgsubr
        </CharString>
        <CharString name="Ygrave">
          112 callgsubr
          70 114 hstem
          82 488 vstem
          -96 callgsubr
          107 458 rmoveto
          82 hlineto
          -62 44 callgsubr
        </CharString>
        <CharString name="Z">
          -25 50 callsubr
          hstem
          -3 551 -71 callgsubr
          endchar
        </CharString>
        <CharString name="Zacute">
          -25 50 callsubr
          50 114 hstem
          -3 551 -71 callgsubr
          275 639 -38 callgsubr
        </CharString>
        <CharString name="Zcaron">
          -25 50 callsubr
          50 114 hstem
          -3 551 -71 callgsubr
          503 753 -5 callsubr
        </CharString>
        <CharString name="Zdotaccent">
          -25 50 callsubr
          55 126 hstem
          294 134 -71 callgsubr
          345 644 -28 callsubr
        </CharString>
        <CharString name="a">
          -79 callsubr
          -2 callsubr
          hintmask 01101000
          53 callsubr
          hintmask 10101000
          -92 callgsubr
          hintmask 01011000
          -85 callsubr
          hintmask 01101000
          -99 callsubr
          hintmask 10101000
          -103 callsubr
          endchar
        </CharString>
        <CharString name="a.a">
          -80 callsubr
          19 callgsubr
          hintmask 01111100
          56 callsubr
          hintmask 10111100
          -88 callsubr
          hintmask 01111100
          -106 callgsubr
          hintmask 10111100
          -92 callsubr
          hintmask 01111100
          -60 callsubr
          endchar
        </CharString>
        <CharString name="a.supa">
          149 callsubr
          56 75 134 77 vstem
          56 337 rmoveto
          -50 36 -31 46 134 callsubr
          62 hlineto
          36 184 rlineto
          3 16 3 118 callgsubr
          24 -53 rlineto
          15 32 24 10 27 hhcurveto
          34 16 -16 -34 -6 -1 -4 -1 -8 hvcurveto
          -117 -4 -90 126 callgsubr
          -23 -15 -24 hhcurveto
          -23 -16 12 25 41 44 24 79 3 hvcurveto
          endchar
        </CharString>
        <CharString name="a.sups">
          -41 callsubr
        </CharString>
        <CharString name="aacute">
          -79 callsubr
          101 145 -2 callsubr
          hintmask 01101100
          53 callsubr
          hintmask 10101100
          -92 callgsubr
          hintmask 01011100
          -85 callsubr
          hintmask 01101100
          -99 callsubr
          hintmask 10101100
          -103 callsubr
          35 496 70 callgsubr
        </CharString>
        <CharString name="aacute.a">
          -80 callsubr
          69 145 19 callgsubr
          hintmask 01111110
          56 callsubr
          hintmask 10111110
          -88 callsubr
          hintmask 01111110
          -106 callgsubr
          hintmask 10111110
          -92 callsubr
          hintmask 01111110
          -60 callsubr
          -94 334 -69 callsubr
        </CharString>
        <CharString name="abreve">
          -79 callsubr
          104 60 -60 131 -2 callsubr
          81 62 hintmask 01100111
          53 callsubr
          hintmask 10100111
          -92 callgsubr
          hintmask 01010111
          -85 callsubr
          hintmask 01100111
          -99 callsubr
          hintmask 10100111
          -103 callsubr
          110 499 30 callgsubr
          hintmask 01101011
          48 callsubr
          hintmask 01100111
          -40 -14 30 41 4 hvcurveto
          -59 hlineto
          hintmask 10100111
          -67 -12 28 -64 83 hhcurveto
          endchar
        </CharString>
        <CharString name="abreve.a">
          -80 callsubr
          72 60 -60 131 19 callgsubr
          hintmask 01110111
          56 callsubr
          hintmask 10110111
          -88 callsubr
          hintmask 01110111
          -106 callgsubr
          hintmask 10110111
          -92 callsubr
          hintmask 01110111
          -60 callsubr
          -20 337 17 callsubr
          hintmask 01111011
          48 callsubr
          hintmask 01110111
          -40 -43 callgsubr
          endchar
        </CharString>
        <CharString name="acircumflex">
          -79 callsubr
          101 145 -59 59 -2 callsubr
          hintmask 01101010
          53 callsubr
          hintmask 10101010
          -92 callgsubr
          hintmask 01011010
          -85 callsubr
          hintmask 01101010
          -99 callsubr
          hintmask 10101010
          -103 callsubr
          -25 496 rmoveto
          77 hlineto
          hintmask 01100110
          40 callgsubr
          hintmask 01101010
          41 -86 rlineto
          71 -20 callgsubr
          endchar
        </CharString>
        <CharString name="acircumflex.a">
          -80 callsubr
          69 145 -59 59 19 callgsubr
          hintmask 01111011
          56 callsubr
          hintmask 10111011
          -88 callsubr
          hintmask 01111011
          -106 callgsubr
          hintmask 10111011
          -92 callsubr
          hintmask 01111011
          -60 callsubr
          -155 334 rmoveto
          77 hlineto
          hintmask 01110111
          40 callgsubr
          hintmask 01111011
          135 callgsubr
          endchar
        </CharString>
        <CharString name="acute">
          -18 81 callgsubr
          256 226 vstem
          256 572 -69 callsubr
        </CharString>
        <CharString name="adieresis">
          -79 callsubr
          109 115 -2 callsubr
          50 142 callsubr
          hintmask 01101100
          53 callsubr
          hintmask 10101100
          -92 callgsubr
          hintmask 01011100
          -85 callsubr
          hintmask 01101100
          -99 callsubr
          hintmask 10101111
          -103 callsubr
          27 504 -36 callsubr
        </CharString>
        <CharString name="adieresis.a">
          -80 callsubr
          77 115 hstemhm
          27 105 43 113 57 106 -98 113 hintmask 0111111100000000
          56 callsubr
          hintmask 1011111100000000
          -88 callsubr
          hintmask 0111111100000000
          -106 callgsubr
          hintmask 1011111100000000
          -92 callsubr
          hintmask 0111111100000000
          -60 callsubr
          -103 342 2 callgsubr
          hintmask 0111111010000000
          68 callsubr
        </CharString>
        <CharString name="ae">
          214 -12 82 148 68 -48 68 114 83 hstemhm
          27 105 505 89 hintmask 10111100
          56 callsubr
          -76 57 -45 72 72 61 33 55 61 vhcurveto
          -49 26 60 -39 70 hhcurveto
          67 56 24 28 38 hvcurveto
          -39 69 rlineto
          -20 -28 -38 -19 -34 hhcurveto
          hintmask 11011100
          -74 -48 56 92 12 hvcurveto
          287 hlineto
          7 16 14 45 43 vvcurveto
          102 -42 79 -114 -56 -57 -30 -51 -44 vhcurveto
          55 -16 -44 26 -63 hhcurveto
          -62 -65 -21 -29 -55 hvcurveto
          26 -75 rlineto
          24 47 45 16 40 hhcurveto
          51 24 -26 -54 hvcurveto
          hintmask 10111100
          -10 -1 -9 -2 -13 vhcurveto
          -178 -6 -133 -49 -142 vvcurveto
          hintmask 11011100
          400 177 rmoveto
          84 23 56 50 51 hhcurveto
          60 20 -43 -48 -16 -2 -11 -3 -16 hvcurveto
          hintmask 10111100
          -308 -48 rmoveto
          -5 -36 0 -25 5 -33 rrcurveto
          -49 -45 -46 -23 -35 hhcurveto
          -39 -27 21 38 65 68 39 124 3 hvcurveto
          endchar
        </CharString>
        <CharString name="agrave">
          -79 callsubr
          101 145 -2 callsubr
          hintmask 01101100
          53 callsubr
          hintmask 10101100
          -92 callgsubr
          hintmask 01011100
          -85 callsubr
          hintmask 01101100
          -99 callsubr
          hintmask 10101100
          -103 callsubr
          101 496 92 callsubr
        </CharString>
        <CharString name="agrave.a">
          -80 callsubr
          69 145 19 callgsubr
          hintmask 01111110
          56 callsubr
          hintmask 10111110
          -88 callsubr
          hintmask 01111110
          -106 callgsubr
          hintmask 10111110
          -92 callsubr
          hintmask 01111110
          -60 callsubr
          -29 334 93 callgsubr
        </CharString>
        <CharString name="amacron">
          -79 callsubr
          126 71 -2 callsubr
          hintmask 01101100
          53 callsubr
          hintmask 10101100
          -92 callgsubr
          hintmask 01011100
          -85 callsubr
          hintmask 01101100
          -99 callsubr
          hintmask 10101100
          -103 callsubr
          -11 521 rmoveto
          250 hlineto
          13 -52 callsubr
        </CharString>
        <CharString name="amacron.a">
          -80 callsubr
          94 71 19 callgsubr
          hintmask 01111110
          56 callsubr
          hintmask 10111110
          -88 callsubr
          hintmask 01111110
          -106 callgsubr
          hintmask 10111110
          -92 callsubr
          hintmask 01111110
          -60 callsubr
          -140 359 81 callsubr
          13 -52 callsubr
        </CharString>
        <CharString name="ampersand">
          64 -12 82 523 73 hstem
          15 104 35 91 131 85 vstem
          119 158 rmoveto
          51 36 38 49 35 vhcurveto
          31 -62 42 -60 48 -50 rrcurveto
          -26 -38 -40 -14 -37 hhcurveto
          -55 -36 36 52 hvcurveto
          126 318 rmoveto
          70 40 47 48 29 14 -20 -27 -62 -55 -39 -66 -38 vhcurveto
          -7 23 -3 24 22 vvcurveto
          267 -116 rmoveto
          -30 -70 -36 -61 -49 -53 -45 45 -41 55 -28 57 rrcurveto
          88 54 90 59 101 vvcurveto
          70 -42 49 -79 -102 -84 -84 -110 -35 7 -38 12 -38 vhcurveto
          -82 -48 -76 -59 -108 vvcurveto
          -95 67 -63 108 73 65 25 42 57 vhcurveto
          42 -33 45 -23 42 -11 43 85 rcurveline
          -28 9 -36 16 -35 25 63 71 49 81 40 85 rrcurveto
          endchar
        </CharString>
        <CharString name="aogonek">
          0 -208 67 129 88 339 88 -12 -20 -2 callsubr
          88 81 hintmask 11101100
          53 callsubr
          -115 54 -64 86 56 61 33 48 46 vhcurveto
          2 hlineto
          -4 -65 rlineto
          -42 -26 -60 -54 -62 vvcurveto
          -46 34 -24 47 96 callgsubr
          -20 48 rlineto
          -7 -11 -11 -4 -13 hhcurveto
          -19 -16 12 21 43 41 39 67 26 hvcurveto
          hintmask 11011100
          -30 callsubr
          -86 hlineto
          hintmask 11101100
          -21 -58 rlineto
          -2 hlineto
          42 -21 -44 28 25 callsubr
          184 -91 rmoveto
          -45 -28 34 72 126 76 107 83 30 31 -17 -42 22 hvcurveto
          -40 -197 rlineto
          -59 -40 -51 -24 -38 hhcurveto
          endchar
        </CharString>
        <CharString name="aogonek.a">
          -41 -208 67 129 84 166 68 112 85 hstem
          27 105 67 81 65 106 vstem
          301 4 rmoveto
          -42 -26 -60 -54 -62 vvcurveto
          62 callgsubr
          43 41 39 67 26 hvcurveto
          55 280 rlineto
          5 24 3 25 21 vvcurveto
          106 -59 47 -102 -62 -67 -21 -29 -55 vhcurveto
          34 -75 rlineto
          25 47 39 15 42 hhcurveto
          50 27 -20 -59 -10 -1 -9 -3 -14 hvcurveto
          -181 -5 -133 -50 -142 vvcurveto
          -88 callsubr
          -1 -50 rlineto
          27 234 rmoveto
          -23 -113 rlineto
          -34 -38 -34 -19 -35 hhcurveto
          -39 -27 19 40 65 68 39 128 3 hvcurveto
          endchar
        </CharString>
        <CharString name="approxequal">
          -50 141 75 6 75 67 75 6 75 hstemhm
          42 426 hintmask 01011000
          98 387 139 callsubr
          hintmask 01101000
          21 callsubr
          hintmask 01011000
          87 callgsubr
          56 -260 139 callsubr
          hintmask 10011000
          21 callsubr
          hintmask 01011000
          87 callgsubr
          endchar
        </CharString>
        <CharString name="aring">
          -79 callsubr
          73 44 104 44 -2 callsubr
          98 56 86 55 hintmask 0110111110000000
          53 callsubr
          hintmask 1010111110000000
          -92 callgsubr
          hintmask 0101111110000000
          -85 callsubr
          hintmask 0110111110000000
          -99 callsubr
          hintmask 1010111110000000
          -103 callsubr
          117 468 rmoveto
          59 46 47 60 55 -38 30 -53 -60 -46 -47 -60 -55 39 1 callgsubr
        </CharString>
        <CharString name="aring.a">
          -80 callsubr
          41 44 104 44 hstemhm
          27 105 92 55 66 106 -86 55 hintmask 0111111101000000
          56 callsubr
          hintmask 1011111101000000
          -88 callsubr
          hintmask 0111111110000000
          -1 -54 rlineto
          87 hlineto
          55 280 rlineto
          5 24 3 25 21 vvcurveto
          106 -59 47 -102 -62 -67 -21 -29 -55 vhcurveto
          34 -75 rlineto
          25 47 39 15 42 hhcurveto
          50 27 -20 -59 -10 -1 -9 -3 -14 hvcurveto
          hintmask 0111111101000000
          -181 -5 -133 -50 -142 vvcurveto
          301 129 rmoveto
          hintmask 1011111101000000
          -92 callsubr
          hintmask 0111111101000000
          -60 callsubr
          -13 306 rmoveto
          59 46 47 60 55 -38 30 -53 -59 -46 -47 -60 -55 38 1 callgsubr
        </CharString>
        <CharString name="arrowdown">
          49 -27 555 hstem
          253 87 vstem
          299 -27 rmoveto
          265 264 -57 51 -167 -170 rlineto
          410 -87 -410 vlineto
          -167 170 -58 -51 266 -264 rlineto
          endchar
        </CharString>
        <CharString name="arrowup">
          49 -27 555 hstem
          253 87 vstem
          294 528 rmoveto
          -266 -264 58 -51 167 171 rlineto
          -411 87 411 vlineto
          167 -171 57 51 -265 264 rlineto
          endchar
        </CharString>
        <CharString name="asciicircum">
          -51 279 391 -101 101 hstemhm
          78 380 hintmask 10100000
          78 279 rmoveto
          89 hlineto
          55 156 rlineto
          hintmask 01100000
          45 134 rlineto
          3 hlineto
          45 -134 55 -156 rlineto
          88 hlineto
          -148 391 rlineto
          -85 hlineto
          endchar
        </CharString>
        <CharString name="asciitilde">
          -50 253 75 6 75 hstemhm
          42 426 hintmask 01100000
          98 276 139 callsubr
          hintmask 10100000
          21 callsubr
          hintmask 01100000
          87 callgsubr
          endchar
        </CharString>
        <CharString name="asterisk">
          -123 387 326 hstem
          113 323 vstem
          174 399 rmoveto
          84 79 57 -91 52 30 -38 102 107 35 -9 56 -108 -14 8 113 -58 4 -29 -110 -102 33 -25 -52 91 -52 -72 -94 rlineto
          endchar
        </CharString>
        <CharString name="at">
          296 -162 68 137 69 -60 70 242 70 155 66 hstemhm
          44 76 128 82 402 72 hintmask 11011111
          599 112 rmoveto
          -48 -13 36 59 14 hvcurveto
          50 219 rlineto
          -67 hlineto
          -15 -41 rlineto
          -2 hlineto
          33 -16 -24 16 -31 hhcurveto
          -109 -90 -120 -122 hvcurveto
          hintmask 10111111
          -87 54 -53 66 42 43 28 38 28 vhcurveto
          3 hlineto
          hintmask 11011111
          -48 11 37 -27 47 hhcurveto
          119 106 107 203 171 -114 131 -198 -234 -214 -213 -279 -212 146 -113 176 56 55 14 29 55 hvcurveto
          -30 60 rlineto
          -22 -37 -47 -13 -43 hhcurveto
          -134 -121 92 178 234 187 179 175 179 71 -113 -135 -149 -74 -80 -59 hvcurveto
          hintmask 10111111
          -269 88 rmoveto
          71 50 93 69 20 17 -10 -28 14 vhcurveto
          -34 -149 rlineto
          -39 -27 -25 -16 -25 hhcurveto
          -36 -23 26 52 hvcurveto
          endchar
        </CharString>
        <CharString name="at.case">
          274 -26 64 106 69 -60 69 213 70 125 63 hstemhm
          92 74 108 81 357 70 hintmask 11011111
          605 213 rmoveto
          -44 -12 35 59 14 hvcurveto
          46 191 rlineto
          -67 hlineto
          -15 -42 rlineto
          -2 hlineto
          34 -15 -22 15 -29 hhcurveto
          -104 -81 -110 -107 hvcurveto
          hintmask 10111111
          -85 48 -50 60 39 43 27 38 27 vhcurveto
          3 hlineto
          hintmask 11011111
          -48 9 35 -26 45 hhcurveto
          107 92 100 184 149 -93 116 -188 -207 -202 -180 -260 -174 117 -105 158 50 58 10 29 50 hvcurveto
          -15 57 rlineto
          -21 -35 -52 -11 -41 hhcurveto
          -127 -89 82 148 205 169 157 159 156 62 -93 -115 -134 -58 -75 -49 hvcurveto
          hintmask 10111111
          -250 83 rmoveto
          60 41 79 62 19 15 -9 -28 13 vhcurveto
          -27 -121 rlineto
          -39 -26 -23 -16 -24 hhcurveto
          -29 -21 25 49 hvcurveto
          endchar
        </CharString>
        <CharString name="atilde">
          -79 callsubr
          105 69 -19 68 -2 callsubr
          hintmask 01100110
          53 callsubr
          hintmask 10100110
          -92 callgsubr
          hintmask 01010110
          -85 callsubr
          hintmask 01100110
          -99 callsubr
          hintmask 10100110
          -103 callsubr
          25 502 107 callsubr
          hintmask 01101010
          42 -22 callsubr
          -13 -13 -16 -16 hhcurveto
          hintmask 01100110
          69 callsubr
        </CharString>
        <CharString name="atilde.a">
          -80 callsubr
          73 69 -19 68 19 callgsubr
          hintmask 01110111
          56 callsubr
          hintmask 10110111
          -88 callsubr
          hintmask 01110111
          -106 callgsubr
          hintmask 10110111
          -92 callsubr
          hintmask 01110111
          -60 callsubr
          -104 340 rmoveto
          95 callgsubr
          hintmask 01111011
          41 -22 callsubr
          -12 -14 -16 -16 hhcurveto
          hintmask 01110111
          34 callgsubr
        </CharString>
        <CharString name="b">
          1 -12 99 callgsubr
          398 110 hintmask 01111000
          111 hmoveto
          hintmask 10111000
          14 callsubr
          hintmask 01111000
          104 callgsubr
          hintmask 10111000
          103 callsubr
          hintmask 01111000
          48 37 50 23 38 hhcurveto
          endchar
        </CharString>
        <CharString name="b.sups">
          -179 256 64 214 64 hstem
          298 79 vstem
          111 264 rmoveto
          15 37 -26 callgsubr
          -29 14 26 -16 30 136 callgsubr
          -35 -19 -25 -28 hvcurveto
          -3 hlineto
          18 65 22 111 rlineto
          -78 hlineto
          -93 -466 rlineto
          205 270 rmoveto
          25 19 -20 -46 -81 -51 -67 -51 -18 -19 10 105 callgsubr
        </CharString>
        <CharString name="backslash">
          -210 -160 870 hstem
          86 168 vstem
          182 -160 rmoveto
          72 hlineto
          -97 870 rlineto
          -71 hlineto
          endchar
        </CharString>
        <CharString name="bar">
          136 callsubr
          -250 rmoveto
          69 1000 -69 hlineto
          endchar
        </CharString>
        <CharString name="braceleft">
          -235 131 callsubr
          hstemhm
          46 88 -35 84 hintmask 11100000
          46 -68 rmoveto
          -57 26 -27 66 vhcurveto
          53 hlineto
          12 59 rlineto
          -20 hlineto
          -38 -11 14 30 hvcurveto
          hintmask 11010000
          59 49 128 69 vvcurveto
          35 -15 21 -35 10 vhcurveto
          1 4 49 12 27 33 15 71 rlinecurve
          11 60 7 56 11 55 rrcurveto
          60 11 17 25 47 hhcurveto
          22 hlineto
          13 59 rlineto
          -55 hlineto
          -84 -35 -33 -106 -21 hvcurveto
          -14 -69 -2 -48 -12 -63 -7 -37 -23 -40 -68 -2 -14 -64 rcurveline
          56 -2 14 -28 -28 vvcurveto
          hintmask 11100000
          -53 -53 -127 -76 vvcurveto
          endchar
        </CharString>
        <CharString name="braceright">
          -232 131 callsubr
          hstemhm
          136 84 -35 88 hintmask 11010000
          273 624 rmoveto
          56 -26 28 -66 vhcurveto
          -53 hlineto
          -12 -59 rlineto
          20 hlineto
          38 11 -14 -31 hvcurveto
          hintmask 11100000
          -59 -49 -128 -68 vvcurveto
          -35 14 -21 36 -10 vhcurveto
          -1 -4 -49 -12 -27 -33 -15 -72 rlinecurve
          -11 -60 -7 -56 -11 -55 rrcurveto
          -60 -11 -17 -24 -47 hhcurveto
          -22 hlineto
          -13 -59 rlineto
          55 hlineto
          83 36 32 106 21 hvcurveto
          14 69 2 49 12 63 7 37 23 40 68 2 14 64 rcurveline
          -56 2 -14 28 27 vvcurveto
          hintmask 11010000
          54 53 127 76 vvcurveto
          endchar
        </CharString>
        <CharString name="bracketleft">
          -233 131 callsubr
          hstem
          2 357 vstem
          95 -93 rmoveto
          148 742 rlineto
          106 hlineto
          10 59 rlineto
          -185 hlineto
          -172 -860 rlineto
          185 hlineto
          13 59 rlineto
          endchar
        </CharString>
        <CharString name="bracketright">
          -232 131 callsubr
          hstem
          -39 358 vstem
          -26 -93 rmoveto
          -13 -59 rlineto
          186 hlineto
          172 860 rlineto
          -186 hlineto
          -11 -59 rlineto
          105 hlineto
          -149 -742 rlineto
          endchar
        </CharString>
        <CharString name="breve">
          -18 575 60 hstem
          229 255 vstem
          330 575 rmoveto
          86 138 callgsubr
          -40 -14 -27 -31 -40 hhcurveto
          -41 -43 callgsubr
          endchar
        </CharString>
        <CharString name="brokenbar">
          136 callsubr
          299 rmoveto
          69 451 -69 hlineto
          -541 vmoveto
          -459 69 459 vlineto
          endchar
        </CharString>
        <CharString name="bullet">
          -231 136 254 hstem
          40 236 vstem
          146 136 rmoveto
          79 51 72 70 66 -46 46 -60 -80 -50 -73 -69 -66 45 -46 61 hvcurveto
          endchar
        </CharString>
        <CharString name="c">
          -105 -2 callgsubr
          hstem
          33 110 vstem
          -89 callgsubr
          endchar
        </CharString>
        <CharString name="c.sups">
          -250 256 62 217 63 hstem
          56 78 vstem
          56 386 rmoveto
          -81 55 -49 73 43 37 17 17 20 vhcurveto
          -25 49 rlineto
          -10 -17 -18 -11 -24 hhcurveto
          -36 -30 25 52 67 45 73 61 21 14 -7 -17 14 hvcurveto
          45 47 rlineto
          22 -20 -31 18 -39 hhcurveto
          -109 -79 -104 -108 hvcurveto
          endchar
        </CharString>
        <CharString name="cacute">
          -105 43 callgsubr
          hstem
          33 110 vstem
          -89 callgsubr
          211 384 -69 callsubr
        </CharString>
        <CharString name="caron">
          -18 81 callgsubr
          226 269 vstem
          495 717 rmoveto
          -77 hlineto
          56 callgsubr
          -41 85 rlineto
          -71 -24 callgsubr
        </CharString>
        <CharString name="ccaron">
          -105 -2 callgsubr
          69 55 callsubr
          33 110 hintmask 11011000
          -89 callgsubr
          450 529 rmoveto
          -77 hlineto
          hintmask 11101000
          56 callgsubr
          hintmask 11011000
          -42 85 rlineto
          -70 -24 callgsubr
        </CharString>
        <CharString name="ccedilla">
          -105 -216 45 186 -21 422 87 hstemhm
          33 110 29 81 hintmask 11110000
          444 443 rmoveto
          32 -27 -42 28 -60 hhcurveto
          -153 -129 -139 -176 -106 55 -69 82 -19 hvcurveto
          hintmask 11111000
          -48 -69 rlineto
          -16 callgsubr
          -19 18 -26 9 vhcurveto
          25 37 67 4 46 28 35 25 rlinecurve
          -46 68 rlineto
          hintmask 11110000
          -20 -25 -30 -18 -38 hhcurveto
          -66 -33 43 74 122 77 102 88 33 20 -12 -26 23 hvcurveto
          endchar
        </CharString>
        <CharString name="ccircumflex">
          -105 43 callgsubr
          -59 59 hstemhm
          33 110 hintmask 11101000
          -89 callgsubr
          150 384 rmoveto
          77 hlineto
          hintmask 11011000
          40 callgsubr
          hintmask 11101000
          135 callgsubr
          endchar
        </CharString>
        <CharString name="cdotaccent">
          -105 -2 callgsubr
          75 126 hstem
          33 110 121 133 vstem
          -89 callgsubr
          292 390 -97 callsubr
        </CharString>
        <CharString name="cedilla">
          -18 -216 45 122 52 hstem
          182 81 vstem
          132 -75 rmoveto
          -16 callgsubr
          -19 18 -26 9 vhcurveto
          35 52 rlineto
          -67 hlineto
          endchar
        </CharString>
        <CharString name="cent">
          -50 -16 689 hstem
          75 105 vstem
          246 177 rmoveto
          -43 18 -23 45 64 vvcurveto
          93 57 68 70 19 vhcurveto
          95 -274 rmoveto
          -27 -20 -31 -15 -36 -4 62 316 rcurveline
          26 -6 18 -14 20 -22 64 60 rcurveline
          -28 32 -34 28 -49 8 20 100 rcurveline
          -63 hlineto
          -20 -99 rlineto
          -124 -15 -125 -105 -167 vvcurveto
          -116 60 -72 93 -13 vhcurveto
          -20 -102 rlineto
          63 hlineto
          20 100 56 6 46 21 43 28 rlinecurve
          endchar
        </CharString>
        <CharString name="circumflex">
          -18 81 callgsubr
          196 269 vstem
          196 572 rmoveto
          77 hlineto
          75 89 callsubr
          45 callsubr
          -82 hlineto
          endchar
        </CharString>
        <CharString name="colon">
          -277 -12 148 203 148 hstemhm
          23 141 -80 141 hintmask 11010000
          143 339 rmoveto
          48 34 43 42 36 -23 27 -36 -48 -34 -44 -41 -37 23 -26 36 hvcurveto
          hintmask 11100000
          -61 -351 82 callgsubr
        </CharString>
        <CharString name="colonmonetary">
          -50 9 -21 24 -21 653 -20 hstemhm
          59 103 hintmask 01110000
          355 567 rmoveto
          1 1 0 1 hhcurveto
          17 14 -3 -6 12 hvcurveto
          -150 -479 -16 4 -13 7 -12 11 rlinecurve
          -29 41 rmoveto
          -12 26 -7 34 40 vvcurveto
          156 61 127 88 33 vhcurveto
          225 -15 rmoveto
          -18 34 -23 30 -31 20 39 125 rcurveline
          -41 hlineto
          -34 -108 -14 5 -15 3 -17 2 rlinecurve
          31 98 rlineto
          -41 hlineto
          -31 -100 rlineto
          -154 -17 -128 -165 -236 vvcurveto
          -98 30 -73 55 -40 vhcurveto
          -42 -133 rlineto
          42 hlineto
          35 113 14 -6 15 -4 15 -2 rlinecurve
          hintmask 10110000
          -31 -101 rlineto
          42 hlineto
          31 98 61 2 59 24 57 50 rlinecurve
          -51 64 -29 -27 -34 -21 -36 -4 rlinecurve
          143 457 9 -11 9 -13 8 -15 rlinecurve
          endchar
        </CharString>
        <CharString name="comma">
          -277 -176 312 -138 138 hstemhm
          26 148 hintmask 10100000
          -16 -176 rmoveto
          hintmask 01100000
          40 callsubr
          endchar
        </CharString>
        <CharString name="comma.dnom">
          -360 -121 221 -100 100 hstemhm
          46 62 hintmask 10100000
          -24 -121 -56 callsubr
        </CharString>
        <CharString name="comma.numr">
          -360 149 221 -100 100 hstemhm
          96 62 hintmask 10100000
          26 149 -56 callsubr
        </CharString>
        <CharString name="comma.subs">
          -360 -291 221 -100 100 hstemhm
          10 62 hintmask 10100000
          -60 -291 -56 callsubr
        </CharString>
        <CharString name="comma.sups">
          -360 319 221 -100 100 hstemhm
          130 62 hintmask 10100000
          60 319 -56 callsubr
        </CharString>
        <CharString name="copyright">
          124 -10 51 85 66 256 66 90 50 hstem
          33 53 91 79 357 53 vstem
          177 279 rmoveto
          -97 61 -56 90 50 43 18 32 41 vhcurveto
          -32 50 rlineto
          -20 -30 -23 -14 -33 hhcurveto
          -54 -34 35 63 92 68 66 58 26 18 -10 -21 18 hvcurveto
          48 45 rlineto
          27 -21 -33 25 -46 hhcurveto
          -100 -115 -90 -145 hvcurveto
          121 -289 -25 callsubr
        </CharString>
        <CharString name="currency">
          -50 135 78 236 77 hstem
          62 98 200 99 vstem
          395 103 rmoveto
          58 49 -50 64 rlineto
          34 39 22 52 59 vvcurveto
          29 -5 25 -10 21 vhcurveto
          69 61 -47 56 -73 -63 rlineto
          20 -26 -34 11 -39 hhcurveto
          -39 -39 -12 -20 -34 hvcurveto
          -49 63 -59 -50 47 -59 rlineto
          -37 -40 -22 -52 -61 vvcurveto
          -29 5 -25 10 -22 vhcurveto
          -68 -59 47 -56 72 63 rlineto
          -21 26 33 -11 40 hhcurveto
          40 40 12 23 34 hvcurveto
          -59 279 rmoveto
          50 28 -33 -59 -83 -61 -61 -61 -49 -29 33 59 83 62 61 60 hvcurveto
          endchar
        </CharString>
        <CharString name="d">
          -4 -12 62 callsubr
          hintmask 01111000
          -15 callgsubr
          hintmask 10111000
          -92 callgsubr
          hintmask 01111000
          12 callsubr
          hintmask 10111000
          -40 callgsubr
          endchar
        </CharString>
        <CharString name="d.sups">
          -172 59 callgsubr
          307 555 rmoveto
          -4 hlineto
          26 -13 -26 17 -30 hhcurveto
          -91 -86 -99 -123 -78 37 -42 57 37 39 20 33 31 hvcurveto
          4 hlineto
          -4 -45 rlineto
          62 hlineto
          92 463 rlineto
          -77 hlineto
          -21 -107 rlineto
          -134 -300 -33 callsubr
        </CharString>
        <CharString name="dagger">
          -82 467.5 82 162.5 -20 hstem
          91 382 vstem
          120 -80 rmoveto
          89 hlineto
          104 551 143 -7 17 89 -146 -7 40 166 rlineto
          -89 hlineto
          -27 -166 -142 7 -18 -89 147 7 rlineto
          endchar
        </CharString>
        <CharString name="daggerdbl">
          -82 81 81 307 80.5 162.5 -20 hstem
          14 459 vstem
          14 78 rmoveto
          145 6 -38 -164 rlineto
          89 hlineto
          25 164 144 -6 18 88 -147 -8 38 158 25 158 143 -10 17 89 -146 -7 39 166 rlineto
          -88 hlineto
          -27 -166 -143 7 -17 -89 147 10 -39 -158 -24 -158 -144 8 rlineto
          endchar
        </CharString>
        <CharString name="dcaron">
          12 140 callgsubr
          45 158 -158 217 -2 callsubr
          hintmask 01110100
          -15 callgsubr
          hintmask 10110100
          -92 callgsubr
          hintmask 01110100
          12 callsubr
          hintmask 10110100
          -40 callgsubr
          407 472 rmoveto
          hintmask 01101100
          49 154 13 63 rlineto
          -71 hlineto
          hintmask 01110100
          117 callgsubr
        </CharString>
        <CharString name="dcroat">
          -2 -12 88 -55 -21 395 88 82 56 -56 141 -2 callsubr
          hintmask 10110100
          348 159 rmoveto
          -59 -41 -46 -24 -42 hhcurveto
          -45 -28 34 72 106 76 107 82 30 30 -18 -42 20 hvcurveto
          233 286 rmoveto
          -69 hlineto
          hintmask 01101100
          17 85 -20 callsubr
          hintmask 01110100
          -17 -85 rlineto
          -149 hlineto
          hintmask 10101100
          -11 -56 rlineto
          149 hlineto
          -10 -53 -14 -94 rlineto
          -3 hlineto
          39 -19 -38 26 -6 callgsubr
          -127 -149 -167 -115 54 -64 86 56 60 32 48 145 callgsubr
          hintmask 01110100
          -5 -68 rlineto
          88 hlineto
          114 565 68 5 rlineto
          endchar
        </CharString>
        <CharString name="degree">
          -213 418 55 157 55 hstem
          98 60 136 61 vstem
          214 418 rmoveto
          76 65 67 82 71 -48 47 -68 -76 -65 -67 -82 -71 48 -47 68 hvcurveto
          21 212 rmoveto
          38 21 -29 -36 -47 -30 -45 -46 -38 -22 29 36 47 31 45 46 hvcurveto
          endchar
        </CharString>
        <CharString name="dieresis">
          -18 580 115 hstem
          197 113 66 113 vstem
          247 580 90 callgsubr
          69 callgsubr
        </CharString>
        <CharString name="divide">
          -50 86 124 82 77 80 124 hstem
          196 128 vstem
          260 449 rmoveto
          36 28 27 36 35 -28 26 -36 -36 -28 -26 -35 -36 28 -27 36 hvcurveto
          -363 vmoveto
          36 28 26 36 35 -28 27 -36 -36 -28 -27 -35 -36 28 -26 36 hvcurveto
          212 206 130 callgsubr
          endchar
        </CharString>
        <CharString name="dollar">
          -50 -110 185 -61 -21 574 185 hstemhm
          108 106 101 106 hintmask 01111000
          481 564 rmoveto
          -32 40 -41 30 -46 13 20 105 rcurveline
          -74 hlineto
          -19 -99 rlineto
          -108 -8 -73 -74 -102 vvcurveto
          hintmask 10111000
          -151 207 -20 -127 vvcurveto
          -58 -41 -38 -64 -56 -46 36 40 -30 vhcurveto
          hintmask 01111000
          -67 -66 37 -44 53 -35 58 -13 rlinecurve
          hintmask 10111000
          -21 -103 rlineto
          74 hlineto
          20 99 rlineto
          115 10 74 81 106 167 -207 20 109 vvcurveto
          50 37 35 55 41 39 -27 -37 26 vhcurveto
          endchar
        </CharString>
        <CharString name="dong">
          -50 0 57 55 74 220 73 74 58 hstem
          71 93 vstem
          29 hmoveto
          362 hlineto
          12 57 rlineto
          -362 hlineto
          276 175 rmoveto
          -32 -34 -28 -14 -32 hhcurveto
          -39 -20 28 49 86 63 57 53 26 21 -13 -26 17 hvcurveto
          211 244 rmoveto
          -73 hlineto
          13 64 rlineto
          -89 hlineto
          -13 -64 rlineto
          -135 hlineto
          -12 -58 rlineto
          135 hlineto
          -8 -41 -13 -77 rlineto
          27 -20 -22 17 -44 hhcurveto
          -93 -110 -90 -141 -83 44 -53 75 42 44 22 30 33 hvcurveto
          2 hlineto
          -2 -42 rlineto
          75 hlineto
          87 431 73 5 rlineto
          endchar
        </CharString>
        <CharString name="dotaccent">
          -18 578 126 hstem
          276 134 vstem
          338 578 -88 callgsubr
        </CharString>
        <CharString name="dotlessi">
          11 callgsubr
          hstem
          22 206 vstem
          -53 callgsubr
          endchar
        </CharString>
        <CharString name="e">
          -61 callsubr
          hstem
          51 callgsubr
          vstem
          -107 callgsubr
          endchar
        </CharString>
        <CharString name="e.sups">
          -216 256 59 91 49 83 60 hstem
          56 73 149 65 vstem
          56 395 rmoveto
          -88 53 -51 80 39 39 13 18 32 vhcurveto
          -24 51 rlineto
          -13 -21 -21 -10 -24 hhcurveto
          -52 -32 32 59 4 hvcurveto
          198 hlineto
          6 12 10 29 29 vvcurveto
          64 -27 58 -80 -87 -93 -83 -120 vhcurveto
          81 60 rmoveto
          52 15 40 31 35 hhcurveto
          38 13 -27 -31 -8 0 -8 -3 -9 hvcurveto
          endchar
        </CharString>
        <CharString name="eacute">
          -61 callsubr
          69 145 hstem
          51 callgsubr
          vstem
          -107 callgsubr
          -121 286 -69 callsubr
        </CharString>
        <CharString name="eacute.sups">
          92 callgsubr
          194 642 rmoveto
          60 hlineto
          96 96 rlineto
          -79 hlineto
          -215 -24 callsubr
        </CharString>
        <CharString name="ebreve">
          -61 callsubr
          72 60 -60 131 hstemhm
          51 callgsubr
          hintmask 11101110
          -107 callgsubr
          -47 289 17 callsubr
          hintmask 11110110
          48 callsubr
          hintmask 11101110
          -40 -43 callgsubr
          endchar
        </CharString>
        <CharString name="ecaron">
          -61 callsubr
          69 55 callsubr
          51 callgsubr
          hintmask 11101110
          -107 callgsubr
          118 431 rmoveto
          -77 hlineto
          hintmask 11110110
          56 callgsubr
          hintmask 11101110
          -42 85 rlineto
          -70 -24 callgsubr
        </CharString>
        <CharString name="ecircumflex">
          -61 callsubr
          69 145 -59 59 hstemhm
          51 callgsubr
          hintmask 11110110
          -107 callgsubr
          -182 286 rmoveto
          77 hlineto
          hintmask 11101110
          40 callgsubr
          hintmask 11110110
          135 callgsubr
          endchar
        </CharString>
        <CharString name="edieresis">
          -61 callsubr
          77 115 hstemhm
          33 104 46 142 callsubr
          -106 89 hintmask 11111101
          -107 callgsubr
          -130 294 2 callgsubr
          hintmask 11111110
          68 callsubr
        </CharString>
        <CharString name="edotaccent">
          -61 callsubr
          75 126 hstemhm
          33 104 125 133 -27 89 hintmask 11111010
          -107 callgsubr
          hintmask 11111100
          -40 292 -97 callsubr
        </CharString>
        <CharString name="egrave">
          -61 callsubr
          69 145 hstem
          51 callgsubr
          vstem
          -107 callgsubr
          -56 286 93 callgsubr
        </CharString>
        <CharString name="egrave.sups">
          92 callgsubr
          235 642 rmoveto
          55 hlineto
          -39 96 rlineto
          -72 hlineto
          -123 -24 callsubr
        </CharString>
        <CharString name="eight">
          -98 callgsubr
        </CharString>
        <CharString name="eight.dnom">
          -186 -12 56 300 58 hstemhm
          10 78 callsubr
          86 101 -94 callsubr
        </CharString>
        <CharString name="eight.numr">
          -186 258 56 300 58 hstemhm
          60 78 callsubr
          136 371 -94 callsubr
        </CharString>
        <CharString name="eight.onum">
          -98 callgsubr
        </CharString>
        <CharString name="eight.pnum">
          -98 callgsubr
        </CharString>
        <CharString name="eight.subs">
          -186 -182 56 300 58 hstemhm
          -26 78 callsubr
          50 -69 -94 callsubr
        </CharString>
        <CharString name="eight.sups">
          -186 428 56 300 58 hstemhm
          94 78 callsubr
          170 541 -94 callsubr
        </CharString>
        <CharString name="eight.tnum">
          -98 callgsubr
        </CharString>
        <CharString name="ellipsis">
          424 -12 148 hstem
          76 141 183 141 183 141 vstem
          135 -12 133 callsubr
          -44 -42 -36 23 -26 36 hvcurveto
          324 hmoveto
          35 callgsubr
          -44 -42 -36 23 -26 36 hvcurveto
          324 hmoveto
          35 callgsubr
          -44 -42 71 callsubr
        </CharString>
        <CharString name="emacron">
          -61 callsubr
          94 71 hstem
          51 callgsubr
          vstem
          -107 callgsubr
          -167 311 81 callsubr
          13 -52 callsubr
        </CharString>
        <CharString name="emdash">
          55 callgsubr
        </CharString>
        <CharString name="endash">
          -81 216 72 hstem
          35 393 vstem
          35 216 rmoveto
          378 hlineto
          15 72 rlineto
          -379 hlineto
          endchar
        </CharString>
        <CharString name="eogonek">
          -56 -208 67 129 82 148 68 134 83 hstem
          33 104 37 80 114 89 vstem
          174 -138 rmoveto
          -19 callsubr
          36 28 50 116 62 hvcurveto
          -40 69 rlineto
          -20 -27 -38 -19 -35 hhcurveto
          -74 -58 44 104 11 hvcurveto
          299 hlineto
          7 16 14 45 43 vvcurveto
          102 -42 79 -114 -129 -139 -124 -183 -132 80 -76 118 6 8 1 1 7 vhcurveto
          -21 -18 -57 -49 -61 vvcurveto
          -28 424 rmoveto
          84 24 59 50 59 hhcurveto
          60 20 -43 -48 -16 -2 -14 -3 -13 hvcurveto
          endchar
        </CharString>
        <CharString name="equal">
          114 callsubr
          403 130 callgsubr
          424 -223 130 callgsubr
          endchar
        </CharString>
        <CharString name="estimated">
          256 -12 20 308 18 306 20 hstem
          66 130 450 128 vstem
          204 108 rmoveto
          -4 6 -4 6 8 vvcurveto
          184 vlineto
          2 2 2 2 vhcurveto
          574 hlineto
          2 0 4 2 vvcurveto
          186 -158 150 -196 -196 -158 -150 -186 -186 158 -150 196 114 102 52 80 66 vhcurveto
          -52 hlineto
          -68 -56 -82 -44 -90 hhcurveto
          -86 -78 38 62 -54 hvcurveto
          -4 226 rmoveto
          -2 -2 2 4 hvcurveto
          180 vlineto
          8 4 8 4 6 vhcurveto
          60 56 76 38 86 hhcurveto
          82 76 -36 -58 56 hvcurveto
          6 -6 4 -8 -8 vvcurveto
          -184 vlineto
          -4 -2 -2 -4 vhcurveto
          endchar
        </CharString>
        <CharString name="eth">
          -13 -12 87 293 83 hstem
          38 98 244 102 vstem
          230 75 rmoveto
          -61 -33 51 60 89 53 93 92 45 33 -31 -35 21 hvcurveto
          -128 -10 -57 -99 -83 hhcurveto
          312 568 rmoveto
          -21 53 -145 -59 -35 39 -43 32 -48 27 rlinecurve
          -49 -63 34 -22 30 -23 24 -25 rlinecurve
          -130 -53 21 -53 147 60 31 -47 17 -55 5 -67 rlinecurve
          41 -25 -41 23 -46 hhcurveto
          -144 -86 -139 -135 -113 80 -76 102 172 90 178 186 95 -25 79 -44 65 hvcurveto
          endchar
        </CharString>
        <CharString name="exclam">
          -237 -12 148 -127 -21 hstemhm
          44 142 hintmask 01100000
          109 212 rmoveto
          72 hlineto
          84 349 24 110 -20 callsubr
          -17 -110 rlineto
          -61 -573 rmoveto
          48 34 42 43 hvcurveto
          hintmask 10100000
          36 -23 27 -36 -48 -35 -44 -42 vhcurveto
          hintmask 01100000
          -36 24 -26 36 vhcurveto
          endchar
        </CharString>
        <CharString name="exclamdown">
          -237 355 148 0 -20 hstemhm
          123 141 hintmask 01100000
          200 280 rmoveto
          -72 hlineto
          -85 -350 -24 -110 rlineto
          107 hlineto
          17 110 rlineto
          62 573 rmoveto
          -49 -33 -42 -43 hvcurveto
          hintmask 10100000
          -36 22 -27 36 49 34 45 41 vhcurveto
          hintmask 01100000
          36 -23 26 -36 vhcurveto
          endchar
        </CharString>
        <CharString name="f">
          -239 21 -21 129 callgsubr
          hstem
          40 380 vstem
          -81 callsubr
          endchar
        </CharString>
        <CharString name="f.sups">
          -335 528 62 91 61 hstemhm
          60 259 -189.5 77 hintmask 11100000
          319 725 rmoveto
          11 -21 -21 6 -24 hhcurveto
          hintmask 11010000
          -69 -38 -49 -67 -13 hvcurveto
          -7 -36 -45 -5 -10 -57 rlineto
          42 hlineto
          -53 -264 rlineto
          77 hlineto
          53 264 rlineto
          64 hlineto
          12 62 rlineto
          -63 hlineto
          7 35 rlineto
          37 8 16 19 26 hhcurveto
          13 13 -6 -5 8 hvcurveto
          endchar
        </CharString>
        <CharString name="f_f">
          45 21 -21 406 85 131 86 -76 86 hstemhm
          40 665 hintmask 11011000
          705 694 rmoveto
          14 -28 -31 10 -37 hhcurveto
          -98 -55 -70 -100 -20 hvcurveto
          -12 -57 rlineto
          -179 hlineto
          hintmask 11101000
          10 50 rlineto
          56 11 27 25 42 hhcurveto
          23 18 -8 -7 14 hvcurveto
          36 77 rlineto
          14 -30 -32 10 -39 hhcurveto
          -100 -56 -70 -100 -21 hvcurveto
          -10 -47 -64 146 callsubr
          64 hlineto
          -82 -406 rlineto
          107 hlineto
          81 406 rlineto
          179 hlineto
          -82 -406 rlineto
          107 hlineto
          82 406 rlineto
          92 hlineto
          17 85 rlineto
          -92 hlineto
          hintmask 11011000
          12 60 rlineto
          56 11 24 25 41 hhcurveto
          20 18 -8 -7 13 hvcurveto
          endchar
        </CharString>
        <CharString name="f_t">
          62 -12 85 -52 -21 129 callgsubr
          hstemhm
          326 109 hintmask 01111000
          488 406 rmoveto
          120 hlineto
          17 85 rlineto
          -118 hlineto
          26 132 rlineto
          -90 hlineto
          -39 -132 rlineto
          -159 hlineto
          12 60 rlineto
          56 11 25 25 40 hhcurveto
          20 19 -8 -7 12 hvcurveto
          36 77 rlineto
          14 -29 -31 10 -37 hhcurveto
          -98 -55 -70 -100 -20 hvcurveto
          -12 -57 -64 146 callsubr
          63 hlineto
          -81 -406 rlineto
          107 hlineto
          81 406 rlineto
          154 hlineto
          -50 -240 rlineto
          -4 -20 -2 -18 -20 vvcurveto
          hintmask 10111000
          -68 36 -52 92 45 35 12 10 24 vhcurveto
          -20 76 rlineto
          -7 -14 -15 -6 -17 hhcurveto
          -41 -16 18 36 12 1 11 2 12 hvcurveto
          endchar
        </CharString>
        <CharString name="fi">
          12 21 -21 406 85 87 126 -72 86 hstemhm
          444 133 hintmask 11011000
          -81 callsubr
          253 -486 rmoveto
          107 hlineto
          99 491 -20 callsubr
          hintmask 11101000
          79 87 -97 callsubr
        </CharString>
        <CharString name="figuredash">
          -50 216 72 hstem
          35 425 vstem
          35 216 rmoveto
          409 hlineto
          16 72 rlineto
          -411 hlineto
          endchar
        </CharString>
        <CharString name="five">
          -50 -12 87 250 81 140 90 hstem
          333 108 vstem
          -6 99 rmoveto
          -70 48 68 -41 83 hhcurveto
          128 120 96 154 111 -72 57 -96 -28 -23 57 callsubr
          42 21 8 37 hhcurveto
          62 39 -35 -70 -89 -65 -56 -72 -63 -39 35 45 -31 hvcurveto
          endchar
        </CharString>
        <CharString name="five.dnom">
          -188 -12 109 callgsubr
          214 79 vstem
          -2 68 -90 callsubr
          endchar
        </CharString>
        <CharString name="five.numr">
          -188 258 109 callgsubr
          264 79 vstem
          48 338 -90 callsubr
          endchar
        </CharString>
        <CharString name="five.onum">
          -40 callsubr
        </CharString>
        <CharString name="five.pnum">
          -69 -12 87 250 81 140 90 hstem
          325 109 vstem
          -13 99 rmoveto
          -70 47 68 -41 83 hhcurveto
          128 121 96 154 111 -73 57 -96 -27 -24 57 callsubr
          43 20 8 37 hhcurveto
          62 39 -35 -70 -89 -64 -56 -72 -63 -40 35 45 -30 hvcurveto
          endchar
        </CharString>
        <CharString name="five.subs">
          -188 -182 109 callgsubr
          178 79 vstem
          -38 -102 -90 callsubr
          endchar
        </CharString>
        <CharString name="five.sups">
          -188 428 109 callgsubr
          298 79 vstem
          82 508 -90 callsubr
          endchar
        </CharString>
        <CharString name="five.tnum">
          -40 callsubr
        </CharString>
        <CharString name="fiveeighths">
          257 -12 56 214 65 21 58 63 57 70 68 hstemhm
          258 79 115 109 callsubr
          hintmask 1101111010000000
          42 338 -90 callsubr
          112 -388 -64 callsubr
          386 -23 callsubr
          hintmask 1111110101000000
          -23 callgsubr
          hintmask 1101111010000000
          -9 callsubr
          hintmask 1111110101000000
          -19 callgsubr
          hintmask 1101111010000000
          -47 -22 -46 -41 -55 vvcurveto
          endchar
        </CharString>
        <CharString name="fl">
          23 -12 87 -66 -21 33 -21 129 callgsubr
          -12 -20 hstemhm
          345 144 hintmask 00111010
          -81 callsubr
          278 -366 rmoveto
          hintmask 01011010
          -5 -21 -2 -16 -15 vvcurveto
          -50 26 -30 57 26 20 4 6 14 vhcurveto
          hintmask 10010110
          2 80 rlineto
          -3 -8 -4 0 -5 hhcurveto
          -10 -7 6 15 4 0 5 2 10 hvcurveto
          118 591 -20 callsubr
          endchar
        </CharString>
        <CharString name="fl.a">
          13 129 callgsubr
          hstem
          40 536 vstem
          -81 callsubr
          253 -486 rmoveto
          107 94 callgsubr
          endchar
        </CharString>
        <CharString name="four">
          -50 21 -21 165 84 285 102 hstem
          8 460 vstem
          341 hmoveto
          33 165 rlineto
          78 hlineto
          16 84 rlineto
          -78 hlineto
          78 387 rlineto
          -125 52 callsubr
          25 39 25 38 rlinecurve
          4 hlineto
          -10 -45 -13 -47 -8 -42 -31 -151 rcurveline
          endchar
        </CharString>
        <CharString name="four.dnom">
          -185 97 55 176 62 hstem
          2 318 vstem
          88 152 -75 callsubr
        </CharString>
        <CharString name="four.numr">
          -185 367 55 176 62 hstem
          52 318 vstem
          138 422 -75 callsubr
        </CharString>
        <CharString name="four.onum">
          -33 callgsubr
        </CharString>
        <CharString name="four.pnum">
          -40 21 -21 165 84 285 102 hstem
          18 460 vstem
          350 hmoveto
          33 165 rlineto
          78 hlineto
          17 84 rlineto
          -78 hlineto
          77 387 rlineto
          -124 52 callsubr
          24 39 26 38 rlinecurve
          4 hlineto
          -10 -45 -13 -47 -9 -42 -30 -151 rcurveline
          endchar
        </CharString>
        <CharString name="four.subs">
          -185 -73 55 176 62 hstem
          -34 318 vstem
          52 -18 -75 callsubr
        </CharString>
        <CharString name="four.sups">
          -185 537 55 176 62 hstem
          86 318 vstem
          172 592 -75 callsubr
        </CharString>
        <CharString name="four.tnum">
          -33 callgsubr
        </CharString>
        <CharString name="fraction">
          -455 -12 684 hstem
          -213 545 vstem
          -147 -12 -64 callsubr
          endchar
        </CharString>
        <CharString name="g">
          -74 callsubr
        </CharString>
        <CharString name="g.a">
          -47 callgsubr
          3 callgsubr
          hintmask 1110100101000000
          -12 callsubr
          hintmask 1111001001000000
          -31 callsubr
          hintmask 1111010010000000
          -77 callgsubr
          hintmask 1111001001000000
          -87 callgsubr
          hintmask 1110100101000000
          -22 callgsubr
          hintmask 1111010010000000
          -81 callgsubr
          hintmask 1110100101000000
          -67 callgsubr
          endchar
        </CharString>
        <CharString name="g.supa">
          -212 121 50 194 49 117 58 -46 54 hstemhm
          19 67 -14 64 -55 70 86 77 -54 66 hintmask 1110001010000000
          81 463 rmoveto
          -32 13 -23 21 -19 vhcurveto
          -3 vlineto
          hintmask 1110010010000000
          -25 -15 -18 -21 -25 vvcurveto
          -19 8 -16 10 -8 vhcurveto
          -4 vlineto
          hintmask 1110100100000000
          -37 -16 -34 -25 -39 vvcurveto
          -66 73 -11 48 84 90 37 76 42 -27 21 -94 13 vhcurveto
          hintmask 1110010010000000
          -49 7 -8 6 19 vvcurveto
          11 9 10 9 6 vhcurveto
          -2 7 12 -2 12 hhcurveto
          83 58 54 75 13 -2 13 -6 11 hvcurveto
          53 hlineto
          11 58 rlineto
          -117 hlineto
          5 -13 -15 3 -17 hhcurveto
          hintmask 1110001010000000
          -77 -62 -58 -76 hvcurveto
          hintmask 1110100100000000
          50 -203 rmoveto
          17 -4 12 -3 10 -1 rrcurveto
          42 -4 25 -9 -23 vvcurveto
          -27 -38 -18 -52 -38 -23 12 28 21 22 17 23 11 vhcurveto
          hintmask 1101001010000000
          87 283 rmoveto
          27 15 -18 -31 -40 -28 -40 -39 -27 -15 18 32 39 28 40 39 hvcurveto
          endchar
        </CharString>
        <CharString name="g.sups">
          -184 115 61 93 63 202 64 hstem
          58 79 vstem
          323 590 rmoveto
          -15 -38 rlineto
          -4 hlineto
          29 -14 -26 17 -30 hhcurveto
          -92 -84 -98 -118 -72 36 -41 58 38 34 15 25 32 hvcurveto
          4 hlineto
          -14 -51 rlineto
          -51 -15 -30 -31 -44 hhcurveto
          -34 -33 17 19 -27 hvcurveto
          -33 -52 rlineto
          -31 39 47 -14 38 hhcurveto
          87 59 51 94 19 hvcurveto
          66 330 rlineto
          -203 -258 rmoveto
          -26 -19 19 41 76 49 66 52 18 19 -10 -28 13 hvcurveto
          -23 -122 rlineto
          -29 -25 -32 -13 -26 hhcurveto
          endchar
        </CharString>
        <CharString name="gbreve">
          -38 callsubr
          104 60 -60 131 -2 callsubr
          hintmask 11010110
          428 491 rmoveto
          hintmask 11100110
          -102 callsubr
          hintmask 11010110
          -51 callsubr
          hintmask 11100110
          -59 callsubr
          hintmask 11010110
          49 callsubr
          hintmask 11100110
          105 476 17 callsubr
          hintmask 11101010
          48 callsubr
          hintmask 11100110
          -40 -43 callgsubr
          endchar
        </CharString>
        <CharString name="gbreve.a">
          -47 callgsubr
          72 60 -60 131 -98 callsubr
          14 147 30 callgsubr
          hintmask 1111010001010000
          -40 -13 -28 -31 -40 hhcurveto
          hintmask 1111001001010000
          -40 -14 30 41 4 hvcurveto
          -60 hlineto
          hintmask 1110101001010000
          -67 -11 27 -64 84 hhcurveto
          endchar
        </CharString>
        <CharString name="gcaron">
          -38 callsubr
          101 55 callsubr
          35 111 hintmask 11010110
          428 491 rmoveto
          hintmask 11100110
          -102 callsubr
          hintmask 11010110
          -51 callsubr
          hintmask 11100110
          -59 callsubr
          hintmask 11010110
          49 callsubr
          hintmask 11100110
          270 618 rmoveto
          -77 hlineto
          hintmask 11101010
          56 callgsubr
          hintmask 11100110
          -42 85 rlineto
          -70 -24 callgsubr
        </CharString>
        <CharString name="gcaron.a">
          -47 callgsubr
          69 60 -60 145 -98 callsubr
          178 289 rmoveto
          -77 hlineto
          hintmask 1111010001010000
          -75 -85 rlineto
          -4 hlineto
          hintmask 1111001001010000
          -42 85 rlineto
          -71 hlineto
          65 -145 rlineto
          82 hlineto
          endchar
        </CharString>
        <CharString name="gcircumflex">
          -38 callsubr
          101 145 -59 59 -2 callsubr
          hintmask 11011010
          428 491 rmoveto
          hintmask 11101010
          -102 callsubr
          hintmask 11011010
          -51 callsubr
          hintmask 11101010
          -59 callsubr
          hintmask 11011010
          49 callsubr
          hintmask 11101010
          -30 473 rmoveto
          77 hlineto
          hintmask 11100110
          40 callgsubr
          hintmask 11101010
          135 callgsubr
          endchar
        </CharString>
        <CharString name="gcircumflex.a">
          -47 callgsubr
          69 145 -59 59 3 callgsubr
          hintmask 1110110001010000
          -12 callsubr
          hintmask 1111010010010000
          -31 callsubr
          hintmask 1111010100100000
          -77 callgsubr
          hintmask 1111010010010000
          -87 callgsubr
          hintmask 1110110001010000
          -22 callgsubr
          hintmask 1111010100100000
          -81 callgsubr
          hintmask 1110110001010000
          -67 callgsubr
          -121 144 rmoveto
          77 hlineto
          hintmask 1111001001010000
          40 callgsubr
          hintmask 1111010001010000
          41 -86 rlineto
          71 -20 callgsubr
          endchar
        </CharString>
        <CharString name="gdotaccent">
          -38 callsubr
          107 126 -2 callsubr
          122 133 hintmask 11011100
          428 491 rmoveto
          hintmask 11101100
          -102 callsubr
          hintmask 11011100
          -51 callsubr
          hintmask 11101100
          -59 callsubr
          hintmask 11011100
          49 callsubr
          hintmask 11101110
          112 479 -97 callsubr
        </CharString>
        <CharString name="gdotaccent.a">
          -47 callgsubr
          75 126 hstemhm
          -20 92 -12 90 -78 99 64 134 -61 106 -72 92 hintmask 1110110010010000
          -12 callsubr
          hintmask 1111010100010000
          -31 callsubr
          hintmask 1111011000100000
          -77 callgsubr
          hintmask 1111010100010000
          -87 callgsubr
          hintmask 1110110010010000
          -22 callgsubr
          hintmask 1111011000100000
          -81 callgsubr
          hintmask 1110110010010000
          -67 callgsubr
          hintmask 1111010011000000
          21 150 rmoveto
          39 33 -91 callgsubr
        </CharString>
        <CharString name="germandbls">
          39 -12 81 -48 -21 632 86 hstemhm
          290 105 19 104 -85 100 hintmask 01111000
          -50 callsubr
          98 493 rlineto
          77 17 42 62 61 hhcurveto
          47 19 -28 -41 hvcurveto
          -96 -124 -24 -98 vvcurveto
          hintmask 10110100
          -102 143 -20 -81 vvcurveto
          -42 -33 -31 -44 -37 -31 16 21 -29 vhcurveto
          -46 -71 rlineto
          -32 43 51 -15 50 hhcurveto
          100 76 74 92 hvcurveto
          120 -138 22 68 69 123 26 119 vvcurveto
          hintmask 10111000
          96 -78 44 -87 -125 -79 -90 -113 -23 vhcurveto
          endchar
        </CharString>
        <CharString name="grave">
          -18 81 callgsubr
          238 159 vstem
          321 572 32 callsubr
        </CharString>
        <CharString name="greater">
          -50 121 419 hstemhm
          48 426 -112 112 hintmask 11000000
          48 121 rmoveto
          hintmask 10100000
          426 171 rlineto
          77 vlineto
          -426 171 rlineto
          -89 vlineto
          187 -70 127 -48 rlineto
          -4 vlineto
          -127 -47 -187 -70 rlineto
          endchar
        </CharString>
        <CharString name="greaterequal">
          -50 0 78 hstemhm
          48 426 -111 111 hintmask 11000000
          472 hmoveto
          78 -424 -78 vlineto
          154 vmoveto
          hintmask 10100000
          426 149 rlineto
          89 vlineto
          -426 148 rlineto
          -89 vlineto
          186 -63 129 -39 rlineto
          -4 vlineto
          -129 -39 -186 -62 rlineto
          endchar
        </CharString>
        <CharString name="guillemotleft">
          -107 62 378 hstem
          40 378 61 callsubr
          278 -154 rmoveto
          45 29 -82 157 137 154 -35 38 -154 -144 -15 -80 rlineto
          endchar
        </CharString>
        <CharString name="guillemotright">
          -107 62 378 hstem
          25 378 57 callgsubr
          71 154 rmoveto
          -45 -29 81 -157 -137 -154 35 -38 155 144 14 80 rlineto
          endchar
        </CharString>
        <CharString name="guilsinglleft">
          -282 62 378 hstem
          40 204 61 callsubr
          endchar
        </CharString>
        <CharString name="guilsinglright">
          -282 62 378 hstem
          25 204 57 callgsubr
          endchar
        </CharString>
        <CharString name="h">
          -11 21 122 callsubr
          203 -20 hstem
          382 109 vstem
          22 hmoveto
          108 hlineto
          -100 callsubr
          -59 -53 -33 -43 -50 vhcurveto
          -4 hlineto
          19 71 43 208 -20 callsubr
          endchar
        </CharString>
        <CharString name="h.sups">
          -183 532 66 hstem
          288 80 vstem
          111 callgsubr
          43 218 rlineto
          34 32 25 16 25 hhcurveto
          23 13 -14 -27 -9 -2 -8 -4 -15 124 callgsubr
          13 3 16 15 vvcurveto
          53 -23 32 -55 -40 -36 -23 -26 -31 vhcurveto
          -3 hlineto
          18 70 22 111 rlineto
          -78 hlineto
          endchar
        </CharString>
        <CharString name="hbar">
          -11 21 -21 391 92 82 76 callsubr
          141 hstemhm
          378 109 hintmask 11001100
          205 407 rmoveto
          19 71 18 87 rlineto
          168 hlineto
          hintmask 11010100
          12 56 rlineto
          -169 hlineto
          hintmask 11001100
          18 85 -20 callsubr
          hintmask 11100100
          -17 -85 -71 -5 rlineto
          hintmask 11001100
          147 callsubr
          108 hlineto
          62 315 rlineto
          53 52 38 23 34 hhcurveto
          42 20 -21 -42 -15 -4 -14 -4 -23 hvcurveto
          -56 -276 rlineto
          107 hlineto
          58 290 rlineto
          6 26 2 20 23 vvcurveto
          79 -34 45 -82 -59 -53 -33 -43 -50 vhcurveto
          endchar
        </CharString>
        <CharString name="hcircumflex">
          -11 21 122 callsubr
          203 -20 68 114 hstem
          382 109 vstem
          22 hmoveto
          108 hlineto
          -100 callsubr
          -59 -53 -33 -43 -50 vhcurveto
          -4 hlineto
          19 71 43 208 -20 callsubr
          -86 48 -5 callgsubr
        </CharString>
        <CharString name="hungarumlaut">
          -18 572 146 hstem
          218 346 vstem
          218 572 54 callsubr
        </CharString>
        <CharString name="hyphen">
          -234 213 79 hstem
          34 243 vstem
          34 213 rmoveto
          226 hlineto
          17 79 rlineto
          -227 hlineto
          endchar
        </CharString>
        <CharString name="i">
          11 callgsubr
          107 126 hstem
          139 133 vstem
          -53 callgsubr
          79 87 -97 callsubr
        </CharString>
        <CharString name="i.sups">
          -372 644 88 hstem
          125 95 vstem
          111 callgsubr
          64 326 rlineto
          -77 hlineto
          55 54 82 callsubr
        </CharString>
        <CharString name="iacute">
          11 callgsubr
          101 145 hstem
          22 318 vstem
          -53 callgsubr
          -7 81 -69 callsubr
        </CharString>
        <CharString name="icircumflex">
          11 callgsubr
          101 145 -59 59 hstemhm
          22 300 hintmask 11101000
          -53 callgsubr
          -68 81 rmoveto
          77 hlineto
          hintmask 11011000
          40 callgsubr
          hintmask 11101000
          135 callgsubr
          endchar
        </CharString>
        <CharString name="idieresis">
          11 callgsubr
          109 115 hstem
          55 142 callsubr
          vstem
          -53 callgsubr
          -16 89 rmoveto
          35 28 28 36 32 -21 19 -29 -35 -28 -30 -35 -32 21 -18 29 hvcurveto
          68 callsubr
        </CharString>
        <CharString name="igrave">
          11 callgsubr
          101 145 hstem
          22 232 vstem
          -53 callgsubr
          58 81 93 callgsubr
        </CharString>
        <CharString name="imacron">
          11 callgsubr
          126 71 hstem
          22 308 vstem
          -53 callgsubr
          -53 106 81 callsubr
          13 -52 callsubr
        </CharString>
        <CharString name="infinity">
          222 135 99 -79 79 173 98 -64 79 hstemhm
          38 80 532 81 hintmask 01011100
          194 155 rmoveto
          72 52 54 45 33 hvcurveto
          4 hlineto
          hintmask 10011100
          -78 59 57 -41 81 hhcurveto
          100 79 83 113 116 -78 73 -102 -77 -52 -48 -67 -50 hvcurveto
          -4 hlineto
          hintmask 01101100
          47 -35 -52 53 -80 hhcurveto
          -97 -66 -76 -101 hvcurveto
          hintmask 01011100
          -98 64 -75 92 vhcurveto
          hintmask 10011100
          212 187 rmoveto
          62 43 48 37 50 hhcurveto
          62 41 -42 -61 -58 -38 -46 -59 -57 -43 42 66 -47 hvcurveto
          hintmask 01101100
          -203 -108 rmoveto
          -50 -35 40 48 50 32 35 50 43 41 -38 -51 34 hvcurveto
          -47 -30 -39 -37 -46 hhcurveto
          endchar
        </CharString>
        <CharString name="integral">
          -196 -158 81 785 82 hstem
          -29 456 vstem
          -7 -73 rmoveto
          -22 -78 rlineto
          -5 11 18 -2 20 hhcurveto
          126 44 100 136 27 hvcurveto
          29 154 -1 174 29 149 rrcurveto
          99 19 23 54 52 hhcurveto
          16 14 -2 -2 8 hvcurveto
          21 79 rlineto
          4 -11 -21 3 -22 hhcurveto
          -127 -43 -102 -134 -26 hvcurveto
          -30 -155 3 -174 -30 -149 rrcurveto
          -101 -20 -20 -52 -54 hhcurveto
          -14 -11 2 2 -8 hvcurveto
          endchar
        </CharString>
        <CharString name="iogonek">
          -293 -208 67 162 -37 callsubr
          107 126 hstem
          -40 80 99 133 4 callsubr
          79 87 -97 callsubr
        </CharString>
        <CharString name="iogonek.d">
          -293 -208 67 162 -37 callsubr
          hstem
          -40 80 4 callsubr
          endchar
        </CharString>
        <CharString name="itilde">
          11 callgsubr
          105 69 -19 68 hstemhm
          22 341 hintmask 11011000
          -53 callgsubr
          -17 87 rmoveto
          95 callgsubr
          hintmask 11101000
          41 -22 callsubr
          -12 -14 -16 -16 hhcurveto
          hintmask 11011000
          34 callgsubr
        </CharString>
        <CharString name="j">
          100 callgsubr
          107 126 hstemhm
          140 134 hintmask 01111000
          8 callsubr
          hintmask 10111000
          -34 -78 rlineto
          hintmask 01111000
          77 callgsubr
          79 616 -88 callgsubr
        </CharString>
        <CharString name="j.sups">
          -372 124 61 459 88 hstem
          125 95 vstem
          191 590 rmoveto
          -77 hlineto
          -70 -351 rlineto
          -36 -7 -10 -18 -25 hhcurveto
          -11 -10 4 4 -9 hvcurveto
          -25 -54 rlineto
          -11 21 19 -4 21 hhcurveto
          67 33 45 64 13 hvcurveto
          48 411 82 callsubr
        </CharString>
        <CharString name="jcircumflex">
          100 callgsubr
          101 145 -59 59 hstemhm
          -128 448 hintmask 01110100
          8 callsubr
          hintmask 10110100
          -34 -78 rlineto
          hintmask 01110100
          77 callgsubr
          -72 610 rmoveto
          77 hlineto
          hintmask 01101100
          40 callgsubr
          hintmask 01110100
          41 -86 rlineto
          71 -20 callgsubr
          endchar
        </CharString>
        <CharString name="k">
          -43 52 callgsubr
          235 -20 hstem
          22 501 -61 callgsubr
          89 444 -20 callsubr
          endchar
        </CharString>
        <CharString name="k.sups">
          -204 264 466 hstem
          49 340 vstem
          111 callgsubr
          16 82 61 60 56 -142 rlineto
          77 hlineto
          -80 186 132 140 rlineto
          -85 hlineto
          -138 -146 rlineto
          -4 hlineto
          58 286 rlineto
          -78 hlineto
          endchar
        </CharString>
        <CharString name="kgreenlandic">
          -43 52 callgsubr
          hstem
          22 501 -61 callgsubr
          45 229 -20 callsubr
          endchar
        </CharString>
        <CharString name="l">
          -282 -12 42 callgsubr
          hstemhm
          40 145 hintmask 00111000
          155 callgsubr
          hintmask 01011000
          -53 callsubr
          hintmask 10011000
          -80 callgsubr
          endchar
        </CharString>
        <CharString name="l.a">
          -292 21 -21 706 -20 hstem
          22 249 vstem
          -29 callsubr
          endchar
        </CharString>
        <CharString name="l.supa">
          -372 264 466 hstem
          49 171 vstem
          111 callgsubr
          93 466 rlineto
          -78 hlineto
          endchar
        </CharString>
        <CharString name="l.sups">
          -372 256 63 hstem
          62 103 vstem
          67 352 rmoveto
          -3 -15 -2 -12 -11 vvcurveto
          -36 18 -22 41 18 16 3 4 10 vhcurveto
          58 vlineto
          -2 -5 -3 0 -3 hhcurveto
          -7 -6 2 11 4 0 4 2 5 hvcurveto
          77 385 rlineto
          -78 hlineto
          endchar
        </CharString>
        <CharString name="lacute">
          -282 -12 42 callgsubr
          72 114 hstemhm
          40 145 hintmask 00111100
          155 callgsubr
          hintmask 01011100
          -53 callsubr
          hintmask 10011100
          -80 callgsubr
          1 52 70 callsubr
        </CharString>
        <CharString name="lacute.a">
          -292 21 -21 706 -20 72 114 hstem
          22 366 vstem
          -29 callsubr
          1 52 70 callsubr
        </CharString>
        <CharString name="lcaron">
          -282 -12 87 -66 -21 31 -21 550 158 -158 217 hstemhm
          40 145 hintmask 00110100
          155 callgsubr
          hintmask 01010100
          -53 callsubr
          hintmask 10010100
          -80 callgsubr
          168 -158 rmoveto
          hintmask 00101100
          49 154 13 63 rlineto
          -72 hlineto
          hintmask 00110100
          117 callgsubr
        </CharString>
        <CharString name="lcaron.a">
          -282 21 -21 548 158 -158 217 hstemhm
          22 372 hintmask 11010000
          -29 callsubr
          168 -158 rmoveto
          hintmask 10110000
          49 154 13 63 rlineto
          -72 hlineto
          hintmask 11010000
          117 callgsubr
        </CharString>
        <CharString name="ldot">
          -167 -12 87 -66 -21 31 -21 261 148 299 -20 hstemhm
          40 145 75 141 hintmask 00111110
          155 callgsubr
          hintmask 01011110
          -53 callsubr
          hintmask 10011110
          -80 callgsubr
          58 callsubr
        </CharString>
        <CharString name="ldot.a">
          -167 21 -21 259 148 299 -20 hstemhm
          22 379 -141 141 hintmask 11110000
          -29 callsubr
          hintmask 11101000
          58 callsubr
        </CharString>
        <CharString name="less">
          -50 121 419 hstem
          46 112 vstem
          46 292 rmoveto
          426 -171 rlineto
          91 vlineto
          -187 70 -127 47 rlineto
          4 vlineto
          127 48 187 70 rlineto
          89 vlineto
          -426 -171 rlineto
          endchar
        </CharString>
        <CharString name="lessequal">
          -50 0 78 hstemhm
          46 112 -112 426 hintmask 10100000
          472 hmoveto
          78 -424 -78 vlineto
          hintmask 11000000
          -2 303 rmoveto
          426 -149 rlineto
          90 vlineto
          -184 62 -130 39 rlineto
          4 vlineto
          130 39 184 63 rlineto
          89 vlineto
          -426 -148 rlineto
          endchar
        </CharString>
        <CharString name="lira">
          -50 0 91 139 58 57 58 164 87 hstemhm
          145 100 -94 102 hintmask 11111000
          96 callsubr
          -8 0 -9 1 -9 hvcurveto
          hintmask 11110100
          -65 -4 -12 -53 rlineto
          82 hlineto
          2 -20 1 -20 1 -17 rrcurveto
          -10 hlineto
          -88 -6 -12 -52 rlineto
          105 hlineto
          -15 -72 -47 -59 -74 -34 116 callsubr
          39 41 22 42 10 52 rlinecurve
          120 hlineto
          12 58 rlineto
          -127 hlineto
          2 0 1 2 vvcurveto
          16 -1 18 -2 18 vhcurveto
          143 hlineto
          12 58 rlineto
          hintmask 11111000
          -160 hlineto
          4 0 5 4 121 callgsubr
        </CharString>
        <CharString name="logicalnot">
          -50 292 77 hstem
          392 80 vstem
          48 292 rmoveto
          344 -193 80 270 -424 hlineto
          endchar
        </CharString>
        <CharString name="lozenge">
          -31 -10 89 502 89 hstem
          68 406 vstem
          225 -10 rmoveto
          91 hlineto
          158 340 -158 340 rlineto
          -91 hlineto
          -157 -340 rlineto
          201 -251 rmoveto
          -57 128 -54 123 54 122 57 129 -26 callgsubr
          56 -129 54 -122 -54 -123 -56 -128 rlineto
          endchar
        </CharString>
        <CharString name="lslash">
          -275 -12 87 -66 -21 31 -21 501 -20 227 -20 hstemhm
          48 144 hintmask 00111100
          210 366 rmoveto
          76 44 16 89 97 callgsubr
          -38 -190 rlineto
          hintmask 01011100
          -4 -21 -2 -16 -15 vvcurveto
          -50 25 -30 57 27 19 4 6 15 vhcurveto
          hintmask 10011100
          2 80 rlineto
          -3 -9 -3 0 -5 hhcurveto
          -10 -8 6 15 4 0 5 2 10 hvcurveto
          endchar
        </CharString>
        <CharString name="lslash.a">
          -279 21 -21 499 -20 227 -20 hstem
          23 279 vstem
          302 499 rmoveto
          97 callgsubr
          -62 -310 rlineto
          107 hlineto
          73 366 76 44 rlineto
          endchar
        </CharString>
        <CharString name="m">
          269 47 callsubr
          hstemhm
          656 110 hintmask 11010000
          -46 callgsubr
          hintmask 10110000
          80 callsubr
          endchar
        </CharString>
        <CharString name="m.sups">
          1 532 66 -54 46 hstemhm
          471 80 hintmask 10100000
          50 264 rmoveto
          77 hlineto
          43 218 rlineto
          32 29 30 18 18 hhcurveto
          25 12 -15 -26 -10 -3 -10 -3 -13 hvcurveto
          -38 -194 rlineto
          76 hlineto
          43 218 rlineto
          33 29 29 17 20 hhcurveto
          24 10 -14 -25 -11 -2 -11 -3 -13 hvcurveto
          -38 -194 rlineto
          77 hlineto
          40 203 rlineto
          4 17 2 16 12 vvcurveto
          55 -22 31 -55 -40 -37 -27 -32 -37 vhcurveto
          33 -8 -18 26 -48 hhcurveto
          -40 -36 -24 -30 -32 hvcurveto
          -4 hlineto
          hintmask 01100000
          2 46 rlineto
          -62 hlineto
          endchar
        </CharString>
        <CharString name="macron">
          -18 597 71 hstem
          210 263 vstem
          210 597 -32 callgsubr
        </CharString>
        <CharString name="minus">
          -50 292 77 hstem
          48 424 vstem
          472 292 130 callgsubr
          endchar
        </CharString>
        <CharString name="multiply">
          -50 128 405 hstem
          64 392 vstem
          260 277 rmoveto
          142 -149 54 54 -142 149 142 148 -54 54 -142 -148 -142 148 -54 -54 142 -148 -142 -149 54 -54 rlineto
          endchar
        </CharString>
        <CharString name="n">
          -5 47 callsubr
          hstemhm
          382 109 hintmask 10110000
          -50 callsubr
          hintmask 11010000
          -100 callsubr
          -62 -55 -37 -44 -52 vhcurveto
          -4 hlineto
          hintmask 10110000
          80 callsubr
          endchar
        </CharString>
        <CharString name="n.sups">
          -182 532 66 -54 46 hstemhm
          287 81 hintmask 10100000
          111 callgsubr
          43 218 rlineto
          34 32 25 16 25 hhcurveto
          23 12 -14 -27 -9 -1 -9 -4 -14 124 callgsubr
          15 3 14 15 vvcurveto
          53 -23 32 -55 -42 -37 -24 -30 -33 vhcurveto
          -4 hlineto
          hintmask 01100000
          2 46 rlineto
          -62 hlineto
          endchar
        </CharString>
        <CharString name="nacute">
          -5 47 callsubr
          101 145 hstemhm
          382 109 hintmask 10111000
          -50 callsubr
          hintmask 11011000
          -100 callsubr
          -62 -55 -37 -44 -52 vhcurveto
          -4 hlineto
          hintmask 10111000
          80 callsubr
          156 81 -69 callsubr
        </CharString>
        <CharString name="napostrophe">
          237 47 callsubr
          104 123 hstemhm
          214 67 346 110 hintmask 10111100
          -58 callsubr
          hintmask 11011100
          339 -35 rmoveto
          hintmask 10111100
          5 69 rlineto
          -88 hlineto
          -97 -491 rlineto
          107 hlineto
          hintmask 11011100
          66 335 rlineto
          53 52 39 23 34 hhcurveto
          41 106 callgsubr
          -59 -296 rlineto
          107 116 callgsubr
          -82 -61 -55 -37 -44 -52 vhcurveto
          endchar
        </CharString>
        <CharString name="nbspace.frac">
          -409 endchar
        </CharString>
        <CharString name="ncaron">
          -5 47 callsubr
          101 55 callsubr
          382 109 hintmask 10101100
          -50 callsubr
          hintmask 11001100
          -100 callsubr
          -62 -55 -37 -44 -52 vhcurveto
          -4 hlineto
          hintmask 10101100
          80 callsubr
          395 226 rmoveto
          -77 hlineto
          hintmask 10110100
          56 callgsubr
          hintmask 10101100
          -41 85 rlineto
          -71 -24 callgsubr
        </CharString>
        <CharString name="nine">
          -57 callsubr
        </CharString>
        <CharString name="nine.dnom">
          -186 -12 107 callgsubr
          38 74 125 76 vstem
          164 202 -85 callgsubr
        </CharString>
        <CharString name="nine.numr">
          -186 258 107 callgsubr
          88 74 125 76 vstem
          214 472 -85 callgsubr
        </CharString>
        <CharString name="nine.onum">
          -62 callsubr
        </CharString>
        <CharString name="nine.pnum">
          -57 callsubr
        </CharString>
        <CharString name="nine.subs">
          -186 -182 107 callgsubr
          2 74 125 76 vstem
          128 32 -85 callgsubr
        </CharString>
        <CharString name="nine.sups">
          -186 428 107 callgsubr
          122 74 125 76 vstem
          248 642 -85 callgsubr
        </CharString>
        <CharString name="nine.tnum">
          -62 callsubr
        </CharString>
        <CharString name="notequal">
          114 callsubr
          180 rmoveto
          77 -219 vlineto
          86 146 rlineto
          133 77 -93 hlineto
          75 124 rlineto
          -72 hlineto
          -75 -124 rlineto
          -259 -77 219 hlineto
          -86 -146 rlineto
          -133 -77 93 hlineto
          -75 -124 rlineto
          72 hlineto
          75 124 rlineto
          endchar
        </CharString>
        <CharString name="ntilde">
          -5 47 callsubr
          105 69 -19 68 hstemhm
          382 109 hintmask 10101100
          -50 callsubr
          hintmask 11001100
          -100 callsubr
          -62 -55 -37 -44 -52 vhcurveto
          -4 hlineto
          hintmask 10101100
          80 callsubr
          146 87 rmoveto
          31 13 13 17 16 hhcurveto
          hintmask 10110100
          24 callsubr
          hintmask 10101100
          -42 20 callsubr
          endchar
        </CharString>
        <CharString name="numbersign">
          -51 21 -21 196 73 132 73 hstem
          21 486 vstem
          36 hmoveto
          66 hlineto
          62 196 rlineto
          113 hlineto
          -62 -196 rlineto
          66 hlineto
          62 196 rlineto
          84 hlineto
          17 73 rlineto
          -78 hlineto
          41 132 rlineto
          82 hlineto
          18 73 rlineto
          -77 137 callgsubr
          -112 137 callgsubr
          -83 hlineto
          -18 -73 rlineto
          78 hlineto
          -41 -132 rlineto
          -82 hlineto
          -17 -73 rlineto
          77 hlineto
          89 73 rmoveto
          41 132 rlineto
          113 hlineto
          -41 -132 rlineto
          endchar
        </CharString>
        <CharString name="o">
          19 callsubr
          hstem
          -42 callsubr
          vstem
          -105 callsubr
          endchar
        </CharString>
        <CharString name="o.sups">
          -17 callsubr
        </CharString>
        <CharString name="oacute">
          -20 43 callgsubr
          hstem
          -42 callsubr
          vstem
          -105 callsubr
          -37 156 -69 callsubr
        </CharString>
        <CharString name="ocircumflex">
          -20 43 callgsubr
          -59 59 9 callsubr
          hintmask 11101100
          -105 callsubr
          -97 156 54 callgsubr
        </CharString>
        <CharString name="odieresis">
          19 callsubr
          77 115 hstemhm
          34 108 55 113 66 113 -110 109 hintmask 11111010
          -105 callsubr
          -46 164 90 callgsubr
          hintmask 11111100
          69 callgsubr
        </CharString>
        <CharString name="oe">
          261 -12 82 -82 87 143 68 130 87 -83 83 hstemhm
          34 108 231 93 218 90 hintmask 01110111
          211 -12 rmoveto
          71 71 43 73 47 hvcurveto
          -76 22 54 -40 70 hhcurveto
          70 59 24 28 39 hvcurveto
          hintmask 10110111
          -39 69 rlineto
          -20 -28 -38 -19 -34 hhcurveto
          -66 -51 44 104 8 hvcurveto
          286 hlineto
          7 16 15 45 43 vvcurveto
          102 -43 79 -114 -62 -67 -40 -70 -44 vhcurveto
          71 -23 -46 39 -77 hhcurveto
          -130 -134 -127 -188 hvcurveto
          hintmask 01110111
          -122 70 -78 107 vhcurveto
          76 428 rmoveto
          56 30 -42 -74 -126 -70 -99 -74 -57 -30 43 74 125 73 99 72 hvcurveto
          189 -130 rmoveto
          hintmask 01101111
          84 22 53 50 53 hhcurveto
          60 20 -43 -48 -16 -2 -14 -2 -13 hvcurveto
          endchar
        </CharString>
        <CharString name="ogonek">
          -18 -208 67 hstem
          105 80 vstem
          105 -138 rmoveto
          -19 callsubr
          36 28 37 53 38 hvcurveto
          -66 hlineto
          -38 -26 -57 -54 -61 vvcurveto
          endchar
        </CharString>
        <CharString name="ograve">
          -20 43 callgsubr
          hstem
          -42 callsubr
          vstem
          -105 callsubr
          28 156 32 callsubr
        </CharString>
        <CharString name="ohorn">
          -16 -2 callgsubr
          9 callsubr
          -8 86 hintmask 11110000
          229 75 -45 callsubr
          hintmask 11101000
          -82 callgsubr
          hintmask 11110000
          -13 callsubr
          hintmask 11101000
          -8 callgsubr
        </CharString>
        <CharString name="ohungarumlaut">
          88 callsubr
          146 hstem
          -42 callsubr
          vstem
          -105 callsubr
          -75 156 54 callsubr
        </CharString>
        <CharString name="omacron">
          19 callsubr
          94 71 hstem
          -42 callsubr
          vstem
          -105 callsubr
          -83 181 -32 callgsubr
        </CharString>
        <CharString name="one">
          -50 0 87 430 119 hstem
          22 383 vstem
          22 hmoveto
          366 hlineto
          17 87 rlineto
          -123 hlineto
          111 549 rlineto
          -81 hlineto
          -42 -25 -46 -16 -63 -10 -14 -68 rcurveline
          115 hlineto
          -87 -430 rlineto
          -135 hlineto
          endchar
        </CharString>
        <CharString name="one.dnom">
          -178 298 92 hstem
          90 186 vstem
          118 hmoveto
          -66 callsubr
          endchar
        </CharString>
        <CharString name="one.numr">
          -178 568 92 hstem
          140 186 vstem
          168 270 68 callgsubr
        </CharString>
        <CharString name="one.onum">
          -185 21 -21 457 68 -68 119 hstemhm
          69 245 hintmask 10110000
          91 hmoveto
          107 hlineto
          116 576 113 callsubr
          -13 -68 rlineto
          114 hlineto
          endchar
        </CharString>
        <CharString name="one.pnum">
          -185 21 -21 517 119 hstem
          82 246 vstem
          200 hmoveto
          128 636 rlineto
          -80 hlineto
          -42 -25 -46 -16 -64 -10 -14 -68 rcurveline
          115 hlineto
          -104 -517 rlineto
          endchar
        </CharString>
        <CharString name="one.subs">
          -178 128 92 hstem
          54 186 vstem
          82 -170 68 callgsubr
        </CharString>
        <CharString name="one.sups">
          -178 738 92 hstem
          174 186 vstem
          202 440 68 callgsubr
        </CharString>
        <CharString name="one.tnum">
          -50 0 87 370 68 -68 119 hstemhm
          22 383 hintmask 10110000
          22 hmoveto
          366 hlineto
          17 87 rlineto
          -123 hlineto
          98 489 113 callsubr
          -14 -68 rlineto
          115 hlineto
          -74 -370 rlineto
          -135 hlineto
          endchar
        </CharString>
        <CharString name="oneeighth">
          248 -12 56 300 58 166 92 hstemhm
          444 109 callsubr
          hintmask 11110100
          136 270 rmoveto
          -66 callsubr
          -20 -580 rmoveto
          478 684 rlineto
          -66 hlineto
          -478 -684 rlineto
          410 -62 callgsubr
        </CharString>
        <CharString name="onehalf">
          249 0 68 -59 -21 344 70 166 92 hstemhm
          661 81 hintmask 10111000
          136 270 rmoveto
          -66 callsubr
          hintmask 01111000
          -26 -580 -64 callsubr
          hintmask 10111000
          328 12 rmoveto
          267 hlineto
          14 68 rlineto
          -140 hlineto
          108 84 61 64 77 vvcurveto
          67 -48 42 -76 -52 -37 -25 -38 -41 vhcurveto
          46 -48 rlineto
          23 23 23 18 24 hhcurveto
          38 19 -20 -33 -65 -69 -64 -151 -103 hvcurveto
          endchar
        </CharString>
        <CharString name="onequarter">
          218 0 152 -143 -21 109 55 176 62 178 92 hstemhm
          112 610 hintmask 10011100
          140 270 rmoveto
          -66 callsubr
          401 104 rmoveto
          hintmask 01011100
          -479 -684 rlineto
          66 hlineto
          479 684 rlineto
          hintmask 10011100
          -176 -520 rmoveto
          75 92 64 84 -26 callgsubr
          -26 -114 -13 -62 rlineto
          127 hmoveto
          -57 hlineto
          47 238 rlineto
          -95 hlineto
          hintmask 00111100
          -204 -250 -9 -43 rlineto
          180 hlineto
          hintmask 10011100
          -20 -97 rlineto
          71 hlineto
          hintmask 00111100
          19 97 rlineto
          56 hlineto
          endchar
        </CharString>
        <CharString name="onethird">
          251 -12 89 callgsubr
          166 92 hstemhm
          646 78 -58 81 hintmask 11111000
          136 270 rmoveto
          -66 callsubr
          -26 -580 -64 callsubr
          333 90 callsubr
          hintmask 11110100
          28 callsubr
          hintmask 11111000
          86 callgsubr
        </CharString>
        <CharString name="ordfeminine">
          -41 callsubr
        </CharString>
        <CharString name="ordfeminine.a">
          149 callsubr
          31 76 133 77 vstem
          31 337 rmoveto
          -50 36 -31 47 134 callsubr
          61 hlineto
          37 184 rlineto
          3 16 2 118 callgsubr
          25 -53 rlineto
          15 32 24 10 26 hhcurveto
          34 16 -16 -34 -6 0 -4 -2 -8 hvcurveto
          -116 -4 -91 126 callgsubr
          -22 -15 -24 hhcurveto
          -24 -15 12 25 41 44 24 78 3 hvcurveto
          endchar
        </CharString>
        <CharString name="ordmasculine">
          -17 callsubr
        </CharString>
        <CharString name="oslash">
          -20 -12 85 -64 -21 430 85 hstemhm
          34 101 251 102 hintmask 10111000
          383 333 rmoveto
          2 -11 1 -11 -13 vvcurveto
          -110 -65 -115 -96 -29 -22 11 19 -15 vhcurveto
          -21 50 rmoveto
          -2 12 -1 13 14 vvcurveto
          110 67 116 94 29 23 -12 -21 16 vhcurveto
          162 95 rmoveto
          -37 34 -57 -59 rlineto
          31 -33 -44 17 -51 hhcurveto
          -134 -136 -127 -188 -45 10 -39 18 -31 hvcurveto
          hintmask 01111000
          -62 -63 rlineto
          hintmask 10111000
          36 -34 56 58 rlineto
          -30 33 43 -16 49 hhcurveto
          135 136 126 189 44 -9 37 -17 30 hvcurveto
          endchar
        </CharString>
        <CharString name="otilde">
          19 callsubr
          73 69 -19 68 9 callsubr
          hintmask 11011100
          -105 callsubr
          -47 162 rmoveto
          31 13 13 17 16 hhcurveto
          hintmask 11101100
          24 callsubr
          hintmask 11011100
          -42 20 callsubr
          endchar
        </CharString>
        <CharString name="p">
          101 callgsubr
          -72 60 hstemhm
          398 110 hintmask 11101000
          134 52 rmoveto
          2 hlineto
          -38 24 39 -26 46 hhcurveto
          135 128 148 188 115 -53 64 -87 -56 -56 -31 -41 -47 hvcurveto
          -3 hlineto
          hintmask 11011000
          2 60 rlineto
          -87 hlineto
          -138 -685 rlineto
          107 hlineto
          28 146 rlineto
          hintmask 11101000
          206 463 41 callsubr
        </CharString>
        <CharString name="p.sups">
          -180 256 63 215 64 hstem
          298 79 vstem
          126 301 rmoveto
          4 hlineto
          -29 14 27 -16 29 136 callgsubr
          -33 -18 -28 -32 hvcurveto
          -4 hlineto
          -1 38 rlineto
          -62 hlineto
          -92 -461 rlineto
          78 hlineto
          20 102 rlineto
          134 303 rmoveto
          25 19 -20 -46 -81 -53 -68 -51 -18 -17 11 105 callgsubr
        </CharString>
        <CharString name="paragraph">
          28 654 -20 hstem
          71 489 vstem
          307 -80 rmoveto
          107 hlineto
          146 734 -20 callsubr
          -164 -441 rmoveto
          23 hlineto
          88 441 rlineto
          -46 hlineto
          -146 -137 -81 -180 -117 101 -63 117 hvcurveto
          endchar
        </CharString>
        <CharString name="parenleft">
          -234 -178 910 hstem
          60 88 vstem
          118 -178 rmoveto
          70 28 rlineto
          -28 74 -12 110 89 vvcurveto
          202 68 191 141 183 vhcurveto
          -63 33 rlineto
          -150 -190 -84 -178 -232 vvcurveto
          -109 27 -116 31 -85 vhcurveto
          endchar
        </CharString>
        <CharString name="parenleft.dnom">
          -303 -84 556 hstem
          39 76 vstem
          190 472 -49 callsubr
        </CharString>
        <CharString name="parenleft.numr">
          -303 186 556 hstem
          89 76 vstem
          240 742 -49 callsubr
        </CharString>
        <CharString name="parenleft.subs">
          -303 -254 556 hstem
          3 76 vstem
          154 302 -49 callsubr
        </CharString>
        <CharString name="parenleft.sups">
          -303 356 556 hstem
          123 76 vstem
          274 912 -49 callsubr
        </CharString>
        <CharString name="parenright">
          -232 -178 910 hstem
          170 88 vstem
          200 732 rmoveto
          -69 -27 rlineto
          27 -74 12 -110 -89 vvcurveto
          -202 -68 -192 -140 -182 vhcurveto
          62 -34 rlineto
          150 190 84 178 233 vvcurveto
          109 -26 116 -32 84 vhcurveto
          endchar
        </CharString>
        <CharString name="parenright.dnom">
          -304 -84 556 hstem
          102 76 vstem
          27 -84 -49 callgsubr
        </CharString>
        <CharString name="parenright.numr">
          -304 186 556 hstem
          152 76 vstem
          77 186 -49 callgsubr
        </CharString>
        <CharString name="parenright.subs">
          -304 -254 556 hstem
          66 76 vstem
          -9 -254 -49 callgsubr
        </CharString>
        <CharString name="parenright.sups">
          -304 356 556 hstem
          186 76 vstem
          111 356 -49 callgsubr
        </CharString>
        <CharString name="partialdiff">
          -2 -11 87 250 84 172 86 hstem
          26 99 288 103 vstem
          208 76 rmoveto
          -53 -29 43 43 -1 hvcurveto
          79 52 85 83 58 34 -39 -43 21 vhcurveto
          -36 -93 -59 -74 -70 -1 rrcurveto
          12 471 rmoveto
          19 24 35 16 32 hhcurveto
          71 31 -56 -81 -38 -5 -41 -9 -40 hvcurveto
          52 -32 -47 32 -63 hhcurveto
          -139 -92 -136 -124 -100 76 -61 89 193 132 247 218 131 -66 83 -124 -56 -50 -22 -33 -45 hvcurveto
          endchar
        </CharString>
        <CharString name="percent">
          266 74 callgsubr
          hintmask 11011111
          188 258 -87 callsubr
          -34 -619 -64 callsubr
          448 hmoveto
          116 71 127 133 hvcurveto
          hintmask 11111111
          123 callsubr
          hintmask 11011111
          -92 53 -64 77 vhcurveto
          hintmask 11111111
          73 callsubr
          endchar
        </CharString>
        <CharString name="period">
          -277 -12 148 hstem
          23 141 vstem
          82 -12 82 callgsubr
        </CharString>
        <CharString name="period.dnom">
          -360 -8 108 hstem
          -3 105 vstem
          41 -8 -1 callgsubr
        </CharString>
        <CharString name="period.numr">
          -360 262 108 hstem
          47 105 vstem
          91 262 -1 callgsubr
        </CharString>
        <CharString name="period.subs">
          -360 -178 108 hstem
          -39 105 vstem
          5 -178 -1 callgsubr
        </CharString>
        <CharString name="period.sups">
          -360 432 108 hstem
          81 105 vstem
          125 432 -1 callgsubr
        </CharString>
        <CharString name="periodcentered">
          24 callgsubr
        </CharString>
        <CharString name="perthousand">
          630 74 callgsubr
          46 78 161 78 hintmask 1011111111000000
          204 -12 -64 callsubr
          hintmask 1101111100000000
          50 270 -87 callsubr
          348 -619 rmoveto
          116 71 127 133 hvcurveto
          hintmask 0010001100000000
          123 callsubr
          hintmask 1101111100000000
          -92 53 -64 77 vhcurveto
          hintmask 1010001111000000
          73 callsubr
          313 -349 rmoveto
          116 71 127 133 135 callsubr
          -92 53 -64 77 hvcurveto
          73 callsubr
          endchar
        </CharString>
        <CharString name="peseta">
          -50 21 -21 240 70 99 69 94 70 hstem
          368 100 vstem
          186 310 rmoveto
          20 99 rlineto
          152 hlineto
          -64 -21 -52 -35 -72 hhcurveto
          52 262 rmoveto
          67 36 -29 -65 hvcurveto
          -149 hlineto
          19 94 rlineto
          287 -94 rmoveto
          -57 hlineto
          3 0 3 3 vvcurveto
          109 -76 46 -104 vhcurveto
          -138 hlineto
          -33 -165 -67 -4 -13 -64 rlineto
          66 hlineto
          -82 -409 rlineto
          102 hlineto
          48 240 rlineto
          37 hlineto
          115 103 54 115 32 hvcurveto
          54 hlineto
          endchar
        </CharString>
        <CharString name="pi">
          17 -12 85 331 86 hstem
          327 107 vstem
          55 hmoveto
          106 hlineto
          80 404 rlineto
          146 hlineto
          -56 -288 rlineto
          -68 -15 22 -60 82 hhcurveto
          26 18 4 8 18 hvcurveto
          -4 78 rlineto
          -3 -8 -7 -2 -9 hhcurveto
          -20 -3 18 30 6 hvcurveto
          57 283 rlineto
          68 hlineto
          18 86 rlineto
          -442 hlineto
          -70 -5 -15 -81 rlineto
          82 hlineto
          endchar
        </CharString>
        <CharString name="plus">
          -50 292 77 hstem
          218 81 vstem
          218 99 rmoveto
          81 193 173 77 -172 190 -80 -190 -172 -77 170 hlineto
          endchar
        </CharString>
        <CharString name="plusminus">
          -50 0 78 235 78 hstem
          218 81 vstem
          218 142 rmoveto
          81 171 173 78 -172 168 -80 -168 -172 -78 170 hlineto
          254 -313 rmoveto
          78 -424 -78 vlineto
          endchar
        </CharString>
        <CharString name="product">
          120 542 94 hstem
          8 649 vstem
          8 -120 rmoveto
          107 hlineto
          133 662 rlineto
          285 hlineto
          -133 -662 102 callsubr
          149 756 rlineto
          -498 hlineto
          endchar
        </CharString>
        <CharString name="q">
          101 callgsubr
          -12 -20 -2 callsubr
          hintmask 11101000
          306 -48 rmoveto
          -30 -146 102 callsubr
          hintmask 11011000
          137 685 rlineto
          -86 hlineto
          hintmask 11101000
          -21 -57 rlineto
          -2 hlineto
          42 -22 -43 27 -6 callgsubr
          -128 -148 -188 -115 54 -64 86 56 61 33 48 46 hvcurveto
          2 hlineto
          -121 7 rmoveto
          -45 -28 34 72 126 76 107 83 30 31 -18 -42 22 hvcurveto
          -40 -196 rlineto
          -59 -41 -50 -24 -38 hhcurveto
          endchar
        </CharString>
        <CharString name="q.sups">
          -182 59 callgsubr
          385 590 rmoveto
          -62 hlineto
          -15 -38 rlineto
          -4 hlineto
          29 -14 -26 17 -30 hhcurveto
          -91 -86 -99 -123 -78 37 -42 57 37 39 20 33 31 hvcurveto
          4 hlineto
          -26 -78 -21 -102 rlineto
          78 hlineto
          -113 191 -33 callsubr
        </CharString>
        <CharString name="question">
          -117 -12 148 -127 -21 607 87 hstemhm
          92 141 100 105 hintmask 01111000
          151 -12 rmoveto
          49 33 42 43 hvcurveto
          hintmask 10111000
          36 -22 27 -36 -49 -34 -44 -42 vhcurveto
          hintmask 01111000
          -36 23 -26 36 vhcurveto
          -6 229 rmoveto
          92 -8 rlineto
          17 143 184 26 159 vvcurveto
          91 -66 54 -101 -60 -56 -27 -43 -43 vhcurveto
          56 -62 rlineto
          28 27 31 17 32 hhcurveto
          46 29 -28 -47 -108 -175 -31 -13 -164 hvcurveto
          endchar
        </CharString>
        <CharString name="questiondown">
          -117 -190 87 459 148 hstem
          -2 104 100 141 vstem
          284 504 rmoveto
          -48 -34 -42 -43 -36 22 -27 36 49 34 44 42 36 -23 26 -36 hvcurveto
          6 -229 rmoveto
          -92 8 rlineto
          -16 -143 -184 -26 -159 vvcurveto
          -91 66 -54 100 60 56 27 43 43 vhcurveto
          -55 62 rlineto
          -28 -28 -31 -17 -32 hhcurveto
          -46 -29 28 47 108 175 31 13 164 hvcurveto
          endchar
        </CharString>
        <CharString name="quotedbl">
          -84 394 277 hstem
          124 338 vstem
          124 394 rmoveto
          72 hlineto
          49 78 callgsubr
          171 -167 rmoveto
          71 hlineto
          50 78 callgsubr
          endchar
        </CharString>
        <CharString name="quotedblbase">
          -197 14 123 hstem
          102 66 126 67 22 callsubr
          212 -49 rmoveto
          84 30 69 72 106 vvcurveto
          52 -25 30 -38 -42 -28 -33 -36 -14 callsubr
          endchar
        </CharString>
        <CharString name="quotedblleft">
          -84 394 123 hstem
          103 67 126 67 vstem
          256 684 -45 callgsubr
          174 49 -45 callgsubr
          endchar
        </CharString>
        <CharString name="quotedblright">
          -84 575 123 hstem
          214 67 126 67 vstem
          -58 callsubr
          212 -49 rmoveto
          84 30 69 72 106 vvcurveto
          52 -26 30 -38 -42 -27 -32 -37 -14 callsubr
          endchar
        </CharString>
        <CharString name="quoteleft">
          -277 394 123 hstem
          103 67 vstem
          256 684 -45 callgsubr
          endchar
        </CharString>
        <CharString name="quoteright">
          -277 575 123 hstem
          214 67 vstem
          -58 callsubr
          endchar
        </CharString>
        <CharString name="quotesinglbase">
          -277 14 123 hstem
          102 66 22 callsubr
          endchar
        </CharString>
        <CharString name="quotesingle">
          -277 394 277 hstem
          124 145 vstem
          124 394 rmoveto
          72 hlineto
          49 78 callgsubr
          endchar
        </CharString>
        <CharString name="r">
          132 callsubr
          hstemhm
          22 381 hintmask 10011000
          -50 callsubr
          58 297 rlineto
          hintmask 11001000
          -12 callgsubr
          hintmask 10011000
          36 94 rlineto
          hintmask 11001000
          -31 callgsubr
          hintmask 10101000
          9 95 rlineto
          -87 hlineto
          endchar
        </CharString>
        <CharString name="r.sups">
          -306 528 69 -59 52 hstemhm
          49 252 hintmask 10100000
          49 264 rmoveto
          77 hlineto
          41 205 rlineto
          42 27 26 17 31 hhcurveto
          9 7 0 -4 8 hvcurveto
          26 67 rlineto
          4 -8 -9 2 -13 hhcurveto
          -38 -32 -24 -35 -26 hvcurveto
          -3 hlineto
          hintmask 01100000
          4 52 rlineto
          -63 hlineto
          endchar
        </CharString>
        <CharString name="racute">
          124 callsubr
          145 hstemhm
          22 401 hintmask 10011100
          -50 callsubr
          58 297 rlineto
          hintmask 11001100
          -12 callgsubr
          hintmask 10011100
          36 94 rlineto
          hintmask 11001100
          -31 callgsubr
          hintmask 10101100
          9 95 rlineto
          -87 hlineto
          77 81 -69 callsubr
        </CharString>
        <CharString name="radical">
          7 -90 112 -112 910 hstemhm
          56 612 hintmask 01100000
          252 92 rmoveto
          -37 327 -159 -63 8 -55 78 31 rlineto
          hintmask 10100000
          60 -422 rlineto
          76 hlineto
          390 910 rlineto
          -76 hlineto
          -306 -728 -25 -70 rlineto
          -4 hlineto
          endchar
        </CharString>
        <CharString name="rcaron">
          124 callsubr
          55 callsubr
          22 414 hintmask 10010110
          -50 callsubr
          58 297 rlineto
          hintmask 11000110
          -12 callgsubr
          hintmask 10010110
          36 94 rlineto
          hintmask 11000110
          -31 callgsubr
          hintmask 10100110
          9 95 rlineto
          -87 hlineto
          316 226 rmoveto
          -77 hlineto
          hintmask 10011010
          56 callgsubr
          hintmask 10010110
          -41 85 rlineto
          -71 -24 callgsubr
        </CharString>
        <CharString name="registered">
          -119 318 40 124 35 63 36 55 41 hstem
          77 44 182 50 52 44 vstem
          173 417 rmoveto
          46 hlineto
          14 65 rlineto
          30 hlineto
          20 -65 rlineto
          47 hlineto
          -26 76 rlineto
          30 11 19 25 29 vvcurveto
          36 -26 22 -39 vhcurveto
          -74 hlineto
          26 -99 rmoveto
          12 63 rlineto
          21 hlineto
          21 9 -11 -16 -21 -16 -15 -28 hvcurveto
          -14 -199 rmoveto
          118 86 107 114 hvcurveto
          101 -1 -77 72 -90 hhcurveto
          -120 -84 -108 -114 -101 77 -71 91 hvcurveto
          33 353 rmoveto
          77 50 -59 -77 -95 -67 -82 -90 -78 -49 59 77 95 67 82 90 hvcurveto
          endchar
        </CharString>
        <CharString name="ring">
          -18 542 45 103 45 hstem
          246 55 87 55 vstem
          338 542 rmoveto
          59 46 48 60 54 -39 31 -53 -59 -46 -47 -60 -55 38 -31 54 hvcurveto
          11 148 rmoveto
          25 14 -19 -25 -32 -22 -27 -26 -26 -13 19 25 32 22 27 26 hvcurveto
          endchar
        </CharString>
        <CharString name="s">
          88 callgsubr
          hstem
          67 101 92 101 vstem
          -99 callgsubr
          endchar
        </CharString>
        <CharString name="s.sups">
          -266 256 56 229 57 hstem
          78 73 54 72 vstem
          25 312 rmoveto
          -33 30 46 -23 45 hhcurveto
          79 52 41 63 44 -28 26 -43 22 hvcurveto
          -29 16 -26 13 20 vvcurveto
          22 18 18 28 29 25 -17 -18 20 vhcurveto
          37 47 rlineto
          24 -28 -37 21 -45 hhcurveto
          -67 -53 -44 -60 -41 30 -26 39 -23 hvcurveto
          41 -23 17 -11 -17 vvcurveto
          -24 -20 -17 -32 -31 -28 18 24 -24 vhcurveto
          endchar
        </CharString>
        <CharString name="sacute">
          88 callgsubr
          69 145 hstem
          67 101 92 101 vstem
          -99 callgsubr
          140 438 -69 callsubr
        </CharString>
        <CharString name="scaron">
          88 callgsubr
          69 55 callsubr
          67 101 92 101 hintmask 11011100
          -99 callgsubr
          379 583 rmoveto
          -77 hlineto
          hintmask 11101100
          56 callgsubr
          hintmask 11011100
          -41 85 rlineto
          -71 -24 callgsubr
        </CharString>
        <CharString name="scircumflex">
          88 callgsubr
          69 145 -59 59 hstemhm
          67 101 92 101 hintmask 11101100
          -99 callgsubr
          80 438 54 callgsubr
        </CharString>
        <CharString name="section">
          -53 -70 81 594 82 hstemhm
          52 93 -3 98 26 98 -1 94 hintmask 11100100
          306 195 rmoveto
          -65 51 -96 26 67 vvcurveto
          43 25 26 35 16 vhcurveto
          66 -50 92 -30 -65 vvcurveto
          -44 -21 -24 -36 -16 vhcurveto
          161 416 rmoveto
          45 -43 -57 31 -61 hhcurveto
          hintmask 11010100
          -96 -68 -63 -91 -23 6 -19 10 -18 hvcurveto
          hintmask 11101000
          -61 -28 -45 -50 -69 -151 214 -12 -88 vvcurveto
          -38 -30 -26 -43 -48 -49 31 35 -33 vhcurveto
          -55 -67 rlineto
          -51 50 67 -29 62 hhcurveto
          104 73 65 93 20 -4 17 -8 16 hvcurveto
          hintmask 11010100
          66 31 39 45 75 148 -217 24 81 vvcurveto
          38 31 22 34 41 37 -26 -29 27 vhcurveto
          endchar
        </CharString>
        <CharString name="semicolon">
          -277 -2 138 203 148 hstemhm
          26 148 -90 141 hintmask 11010000
          -16 -176 rmoveto
          hintmask 11100000
          40 callsubr
          hintmask 11010000
          195 602 rmoveto
          -48 -34 -44 -41 -37 23 -26 36 48 34 43 42 36 -23 27 -36 hvcurveto
          endchar
        </CharString>
        <CharString name="seven">
          -50 21 -21 546 90 hstem
          103 426 vstem
          110 150 callsubr
          194 180 13 68 rcurveline
          -408 hlineto
          -18 -90 rlineto
          287 hlineto
          -148 -148 -74 -168 -58 -230 rrcurveto
          endchar
        </CharString>
        <CharString name="seven.dnom">
          -186 322 68 hstem
          63 284 vstem
          66 hmoveto
          -65 callsubr
          endchar
        </CharString>
        <CharString name="seven.numr">
          -186 592 68 hstem
          113 284 vstem
          116 270 rmoveto
          -65 callsubr
          endchar
        </CharString>
        <CharString name="seven.onum">
          -76 485 91 hstem
          78 418 vstem
          78 -76 rmoveto
          111 hlineto
          43 208 57 194 193 182 14 68 rcurveline
          -400 hlineto
          -18 -91 rlineto
          278 hlineto
          -147 -148 -73 -176 -58 -237 rrcurveto
          endchar
        </CharString>
        <CharString name="seven.pnum">
          -76 21 -21 546 90 hstem
          92 416 vstem
          96 150 callsubr
          186 180 14 68 rcurveline
          -398 hlineto
          -18 -90 rlineto
          277 hlineto
          -142 -148 -73 -168 -58 -230 rrcurveto
          endchar
        </CharString>
        <CharString name="seven.subs">
          -186 152 68 hstem
          27 284 vstem
          30 -170 rmoveto
          -65 callsubr
          endchar
        </CharString>
        <CharString name="seven.sups">
          -186 762 68 hstem
          147 284 vstem
          150 440 rmoveto
          -65 callsubr
          endchar
        </CharString>
        <CharString name="seven.tnum">
          -50 485 91 hstem
          89 426 vstem
          93 -76 rmoveto
          111 hlineto
          42 207 62 193 194 184 13 68 rcurveline
          -408 hlineto
          -18 -91 rlineto
          287 hlineto
          -148 -149 -76 -176 -59 -236 rrcurveto
          endchar
        </CharString>
        <CharString name="seveneighths">
          243 -12 56 300 58 190 68 hstemhm
          438 109 callsubr
          hintmask 11110100
          96 270 rmoveto
          -65 callsubr
          68 -282 -64 callsubr
          416 -62 callgsubr
        </CharString>
        <CharString name="six">
          -93 callsubr
        </CharString>
        <CharString name="six.dnom">
          -187 -12 108 callgsubr
          20 76 126 73 vstem
          158 53 -86 callsubr
        </CharString>
        <CharString name="six.numr">
          -187 258 108 callgsubr
          70 76 126 73 vstem
          208 323 -86 callsubr
        </CharString>
        <CharString name="six.onum">
          -93 callsubr
        </CharString>
        <CharString name="six.pnum">
          -93 callsubr
        </CharString>
        <CharString name="six.subs">
          -187 -182 108 callgsubr
          -16 76 126 73 vstem
          122 -117 -86 callsubr
        </CharString>
        <CharString name="six.sups">
          -187 428 108 callgsubr
          104 76 126 73 vstem
          242 493 -86 callsubr
        </CharString>
        <CharString name="six.tnum">
          -93 callsubr
        </CharString>
        <CharString name="slash">
          -210 -160 870 hstem
          -70 476 vstem
          -70 -160 rmoveto
          72 hlineto
          404 870 rlineto
          -74 hlineto
          endchar
        </CharString>
        <CharString name="slash.frac">
          -455 -12 684 hstem
          -211 545 vstem
          -145 -12 -64 callsubr
          endchar
        </CharString>
        <CharString name="space">
          -349 endchar
        </CharString>
        <CharString name="space.frac">
          -409 endchar
        </CharString>
        <CharString name="sterling">
          -50 0 91 185 78 213 87 hstemhm
          145 100 -90 98 hintmask 11110000
          96 callsubr
          -22 2 -26 3 -26 hvcurveto
          hintmask 11101000
          -76 -5 -15 -73 rlineto
          96 hlineto
          -1 -92 -51 -78 -89 -41 116 callsubr
          49 52 24 54 3 75 rlinecurve
          131 hlineto
          15 78 rlineto
          hintmask 11110000
          -150 hlineto
          -2 22 -2 22 18 121 callgsubr
        </CharString>
        <CharString name="summation">
          -45 -120 91 575 90 hstem
          -50 594 vstem
          -38 -54 rmoveto
          -12 -66 rlineto
          467 hlineto
          20 91 rlineto
          -333 4 hlineto
          247 285 -128 282 rlineto
          4 303 vlineto
          18 90 rlineto
          -432 hlineto
          -13 -66 145 -301 rlineto
          endchar
        </CharString>
        <CharString name="t">
          -198 -12 85 333 85 hstem
          66 109 vstem
          -95 callgsubr
          endchar
        </CharString>
        <CharString name="t.sups">
          -309 256 61 211 62 hstem
          77 79 vstem
          82 379 rmoveto
          -3 -14 -2 -12 -13 vvcurveto
          -48 24 -36 65 22 27 6 6 18 vhcurveto
          -13 56 rlineto
          -3 -9 -8 -4 -14 hhcurveto
          -21 -12 12 25 6 1 8 1 8 hvcurveto
          31 152 rlineto
          82 hlineto
          11 62 rlineto
          -81 hlineto
          17 86 rlineto
          -64 hlineto
          -26 -86 -50 -4 -11 -58 rlineto
          46 hlineto
          endchar
        </CharString>
        <CharString name="tcaron">
          -198 -12 85 333 85 57 75 hstem
          66 109 vstem
          -95 callgsubr
          250 142 rmoveto
          49 154 12 63 rlineto
          -71 hlineto
          117 callgsubr
        </CharString>
        <CharString name="thorn">
          101 callgsubr
          203 -20 hstem
          398 110 vstem
          245 -12 rmoveto
          135 128 148 188 115 -53 64 -87 -54 -54 -28 -37 -46 hvcurveto
          -2 hlineto
          24 94 35 174 -20 callsubr
          -181 -900 rlineto
          107 hlineto
          28 146 16 100 rlineto
          2 hlineto
          -38 24 39 -26 46 hhcurveto
          79 427 41 callsubr
        </CharString>
        <CharString name="three">
          -50 -12 87 213 78 196 86 hstemhm
          327 107 -72 109 hintmask 11110000
          -12 100 rmoveto
          -69 48 76 -43 82 hhcurveto
          138 102 74 125 61 -36 50 -69 25 hvcurveto
          4 vlineto
          hintmask 11101000
          99 30 43 61 81 vvcurveto
          90 -69 59 -110 -64 -62 -18 -43 -59 vhcurveto
          53 -70 rlineto
          29 38 40 152 callsubr
          -146 hvcurveto
          -16 -78 rlineto
          hintmask 11110000
          130 41 -41 -61 -66 -53 -45 -80 -56 -49 35 46 -33 hvcurveto
          endchar
        </CharString>
        <CharString name="three.dnom">
          -188 -12 89 callgsubr
          hstemhm
          207 79 -58 80 hintmask 11110000
          -2 68 -86 callgsubr
        </CharString>
        <CharString name="three.numr">
          -188 258 89 callgsubr
          hstemhm
          257 79 -58 80 hintmask 11110000
          48 338 -86 callgsubr
        </CharString>
        <CharString name="three.onum">
          -54 callgsubr
        </CharString>
        <CharString name="three.pnum">
          -69 -12 87 213 78 196 86 hstemhm
          321 107 -73 110 hintmask 11110000
          -19 100 rmoveto
          -69 49 76 -43 82 hhcurveto
          137 103 74 125 61 -37 50 -69 25 hvcurveto
          4 vlineto
          hintmask 11101000
          100 30 43 61 81 vvcurveto
          90 -69 59 -111 -64 -61 -18 -43 -59 vhcurveto
          53 -70 rlineto
          29 38 39 152 callsubr
          -145 hvcurveto
          -16 -78 rlineto
          hintmask 11110000
          129 42 -41 -61 -66 -54 -45 -80 -55 -50 35 46 -32 hvcurveto
          endchar
        </CharString>
        <CharString name="three.subs">
          -188 -182 89 callgsubr
          hstemhm
          171 79 -58 80 hintmask 11110000
          -38 -102 -86 callgsubr
        </CharString>
        <CharString name="three.sups">
          -188 428 89 callgsubr
          hstemhm
          291 79 -58 80 hintmask 11110000
          82 508 -86 callgsubr
        </CharString>
        <CharString name="three.tnum">
          -54 callgsubr
        </CharString>
        <CharString name="threeeighths">
          257 -12 56 214 65 21 58 42 51 113 64 hstemhm
          245 79 -58 80 106 109 callsubr
          hintmask 1101110101000000
          36 338 143 callsubr
          68 hhcurveto
          80 67 45 79 34 -22 34 -41 18 hvcurveto
          hintmask 1101101101000000
          56 20 29 38 50 vvcurveto
          58 -48 38 -67 -46 -38 -10 -28 -42 vhcurveto
          34 -54 rlineto
          20 28 21 8 26 hhcurveto
          32 20 -18 -27 -33 -24 -35 -82 hvcurveto
          hintmask 1101110101000000
          -11 -51 rlineto
          72 24 -26 -35 -38 -31 -22 -43 -37 -26 21 32 -18 hvcurveto
          118 -388 -64 callsubr
          386 -23 callsubr
          hintmask 1111110010100000
          -23 callgsubr
          hintmask 1101110101000000
          -9 callsubr
          hintmask 1111110010100000
          -19 callgsubr
          hintmask 1101110101000000
          -47 -22 -46 -41 -55 vvcurveto
          endchar
        </CharString>
        <CharString name="threequarters">
          232 0 152 -143 -21 109 55 106 65 5 62 54 51 113 64 hstemhm
          251 79 -58 80 hintmask 1001011100000000
          145 580 rmoveto
          hintmask 1001011010000000
          20 28 21 8 26 hhcurveto
          32 20 -18 -27 -33 -24 -35 -82 hvcurveto
          hintmask 1001011100000000
          -11 -51 rlineto
          72 24 -26 -35 -38 -31 -22 -43 -37 -26 21 32 -18 hvcurveto
          -54 -38 rlineto
          -45 26 47 -35 68 hhcurveto
          80 67 45 79 34 -22 34 -41 18 hvcurveto
          hintmask 0101011010000000
          56 20 29 38 50 vvcurveto
          58 -48 38 -67 -46 -38 -10 -28 -42 vhcurveto
          519 38 rmoveto
          -479 -684 rlineto
          66 hlineto
          479 684 rlineto
          hintmask 1000111100000000
          -190 -520 rmoveto
          75 92 64 84 -26 callgsubr
          -27 -114 -12 -62 rlineto
          127 hmoveto
          -57 hlineto
          46 238 rlineto
          -94 hlineto
          hintmask 0011011100000000
          -204 -250 -9 -43 rlineto
          179 hlineto
          hintmask 1001011100000000
          -19 -97 rlineto
          71 hlineto
          hintmask 0011011100000000
          19 97 rlineto
          56 hlineto
          endchar
        </CharString>
        <CharString name="tilde">
          -18 576 69 -19 68 hstemhm
          188 318 hintmask 01100000
          246 578 rmoveto
          31 13 13 17 16 hhcurveto
          hintmask 10100000
          24 callsubr
          hintmask 01100000
          -42 20 callsubr
          endchar
        </CharString>
        <CharString name="trademark">
          88 411 85 106 74 -66 66 hstemhm
          74 617 hintmask 10110000
          323 364 rmoveto
          69 hlineto
          24 121 125 callsubr
          hintmask 11010000
          33 callgsubr
          rlineto
          hintmask 10110000
          -22 104 rlineto
          -85 hlineto
          -266 -312 rmoveto
          72 hlineto
          49 246 rlineto
          89 hlineto
          13 66 rlineto
          -254 hlineto
          -13 -66 rlineto
          92 hlineto
          endchar
        </CharString>
        <CharString name="triagdn">
          12 25 507 hstem
          20 516 vstem
          279 25 rmoveto
          257 505 rlineto
          2 -516 -2 vlineto
          257 -505 rlineto
          endchar
        </CharString>
</ttFont>
